<!-- Generated by IcoMoon.io -->
<svg version="1.1" xmlns="http://www.w3.org/2000/svg" width="32" height="32" viewBox="0 0 32 32">
<title>group-5</title>
<path fill="#8e8f99" d="M2.434 23.808c0.117 0.127 0.188 0.297 0.188 0.484 0 0.003-0 0.006-0 0.009v-0c0.006 0.116-0.016 0.233-0.067 0.34s-0.127 0.203-0.224 0.281c-0.213 0.144-0.475 0.23-0.757 0.23-0.031 0-0.062-0.001-0.092-0.003l0.004 0h-1.486v-3.115h1.455c0.287-0.017 0.572 0.056 0.806 0.207 0.094 0.071 0.168 0.16 0.217 0.261s0.071 0.211 0.065 0.321c0 0.009 0.001 0.020 0.001 0.031 0 0.171-0.064 0.328-0.17 0.446l0.001-0.001c-0.115 0.123-0.267 0.21-0.438 0.243l-0.005 0.001c0.2 0.032 0.373 0.128 0.502 0.265l0 0zM0.691 23.338h0.622c0.013 0.001 0.029 0.002 0.045 0.002 0.131 0 0.252-0.039 0.354-0.106l-0.002 0.002c0.047-0.038 0.083-0.085 0.106-0.138s0.032-0.11 0.027-0.166c0.004-0.056-0.005-0.113-0.028-0.166s-0.058-0.1-0.104-0.139c-0.101-0.067-0.224-0.107-0.357-0.107-0.018 0-0.035 0.001-0.052 0.002l0.002-0h-0.612v0.817zM1.77 24.533c0.050-0.039 0.089-0.088 0.115-0.143s0.037-0.114 0.032-0.174c0.004-0.060-0.008-0.12-0.034-0.176s-0.066-0.105-0.117-0.144c-0.108-0.072-0.241-0.114-0.383-0.114-0.014 0-0.028 0-0.042 0.001l0.002-0h-0.652v0.857h0.661c0.012 0.001 0.027 0.001 0.041 0.001 0.14 0 0.27-0.041 0.379-0.111l-0.003 0.002zM5.409 25.148l-0.81-1.217h-0.304v1.217h-0.696v-3.115h1.318c0.332-0.021 0.661 0.074 0.918 0.265 0.184 0.169 0.295 0.392 0.313 0.628s-0.058 0.471-0.215 0.661c-0.163 0.168-0.385 0.28-0.629 0.317l0.862 1.245h-0.757zM4.295 23.506h0.57c0.396 0 0.593-0.157 0.593-0.472 0.004-0.064-0.007-0.128-0.032-0.189s-0.064-0.115-0.114-0.161c-0.108-0.080-0.244-0.128-0.391-0.128-0.020 0-0.040 0.001-0.059 0.003l0.003-0h-0.576l0.007 0.948zM9.215 24.521h-1.388l-0.245 0.627h-0.73l1.274-3.080h0.789l1.269 3.080h-0.73l-0.24-0.627zM9.029 24.049l-0.507-1.315-0.507 1.315h1.014zM13.98 25.148h-0.691l-1.55-2.118v2.118h-0.69v-3.115h0.69l1.55 2.13v-2.13h0.691v3.115zM17.925 24.402c-0.151 0.24-0.364 0.428-0.616 0.545l-0.009 0.004c-0.269 0.124-0.583 0.197-0.915 0.197-0.020 0-0.040-0-0.060-0.001l0.003 0h-1.231v-3.115h1.231c0.336-0.008 0.67 0.058 0.972 0.192 0.265 0.12 0.483 0.309 0.625 0.543 0.142 0.253 0.216 0.533 0.216 0.817s-0.074 0.564-0.216 0.817zM17.134 24.327c0.197-0.207 0.306-0.471 0.306-0.743s-0.108-0.536-0.306-0.743c-0.215-0.167-0.488-0.267-0.785-0.267-0.028 0-0.056 0.001-0.083 0.003l0.004-0h-0.48v2.016h0.48c0.316 0.018 0.627-0.077 0.865-0.265zM9.648 4.707s8.923 3.033 8.734 7.421v7.423s-8.916-3.034-8.73-7.423l-0.003-7.421zM26.331 17.813c1.62-1.010 3.549-1.684 5.617-1.877l0.052-0.004v-2.324c-2.345 0.813-4.333 2.289-5.669 4.204z"></path>
<path fill="#8e8f99" d="M25.318 18.513c1.379-2.5 3.77-4.43 6.682-5.391v-6.695s-12.707 4.32-12.439 10.57v10.568s0.566-0.193 1.457-0.555c0-0.338 0-0.679 0.041-1.021 0.263-2.901 1.795-5.59 4.259-7.474z"></path>
<path fill="#8e8f99" d="M24.11 22.439c0.075-0.799 0.232-1.534 0.465-2.234l-0.020 0.070c-1.534 1.628-2.464 3.647-2.657 5.775-0.017 0.175-0.029 0.386-0.034 0.6l-0 0.009c1.061-0.456 1.864-0.844 2.651-1.259l-0.207 0.099c-0.152-0.649-0.239-1.394-0.239-2.16 0-0.317 0.015-0.63 0.044-0.94l-0.003 0.040zM24.615 22.477c-0.025 0.257-0.039 0.556-0.039 0.859 0 0.677 0.071 1.337 0.207 1.974l-0.011-0.062c3.472-1.87 7.373-4.76 7.223-8.252v-0.304c-2.48 0.25-4.801 1.226-6.606 2.779-0.398 0.879-0.673 1.899-0.771 2.969l-0.003 0.038z"></path>
</svg>
