<!-- Generated by IcoMoon.io -->
<svg version="1.1" xmlns="http://www.w3.org/2000/svg" width="32" height="32" viewBox="0 0 32 32">
<title>group-1</title>
<path fill="#8e8f99" d="M6.128 0l4.771 4.546-8.856-0.005v22.054h23.149v-8.432l4.766 4.541v-22.703h-23.83zM24.982 17.629l-13.528-12.889h13.528v12.889zM20.782 23.369h-15.076v-14.833h1.066v13.828h14.010v1.004zM8.712 30.68l-0.562-1.155h-0.464l0.814 1.529v0.891h0.421v-0.891l0.815-1.529h-0.462l-0.562 1.155zM10.783 29.525h0.1l0.914 2.42h-0.439l-0.196-0.567h-0.937l-0.195 0.567h-0.437l0.911-2.42h0.279zM10.34 31.047h0.709l-0.355-1.027-0.354 1.027zM13.264 30.646l-0.053-0.068c-0.054-0.069-0.102-0.147-0.142-0.23l-0.003-0.008c-0.033-0.075-0.053-0.163-0.053-0.256 0-0.113 0.029-0.22 0.080-0.313l-0.002 0.003c0.052-0.090 0.127-0.162 0.218-0.208l0.003-0.001c0.093-0.047 0.202-0.075 0.318-0.075 0.006 0 0.011 0 0.017 0h-0.001c0.123 0 0.229 0.025 0.317 0.075 0.090 0.049 0.158 0.114 0.206 0.194 0.049 0.081 0.073 0.17 0.073 0.266 0 0.076-0.014 0.146-0.042 0.209s-0.066 0.121-0.115 0.173c-0.051 0.054-0.107 0.102-0.166 0.146l-0.004 0.002-0.168 0.122 0.479 0.566c0.066-0.127 0.105-0.278 0.105-0.438 0-0.005-0-0.010-0-0.015v0.001h0.346c0 0.117-0.012 0.229-0.035 0.334-0.032 0.152-0.094 0.287-0.179 0.403l0.002-0.003 0.355 0.418h-0.464l-0.141-0.165c-0.071 0.055-0.153 0.101-0.241 0.134l-0.007 0.002c-0.11 0.040-0.236 0.063-0.368 0.063-0.003 0-0.005 0-0.008-0h0c-0.161 0-0.3-0.029-0.417-0.088s-0.208-0.14-0.273-0.243c-0.060-0.098-0.095-0.216-0.095-0.343 0-0.004 0-0.008 0-0.012v0.001c0-0.099 0.021-0.185 0.061-0.259 0.046-0.081 0.102-0.15 0.167-0.208l0.001-0.001c0.066-0.059 0.14-0.119 0.224-0.178zM13.463 30.889l-0.050 0.036c-0.051 0.039-0.094 0.085-0.13 0.136l-0.001 0.002c-0.043 0.062-0.069 0.14-0.069 0.223 0 0.068 0.017 0.132 0.047 0.188l-0.001-0.002c0.032 0.058 0.078 0.105 0.133 0.137l0.002 0.001c0.060 0.033 0.132 0.050 0.218 0.050 0.001 0 0.001 0 0.002 0 0.148 0 0.283-0.052 0.39-0.138l-0.001 0.001-0.539-0.633zM13.559 30.447l0.148-0.1c0.059-0.037 0.109-0.082 0.149-0.135l0.001-0.001c0.028-0.045 0.045-0.1 0.045-0.158 0-0.004-0-0.008-0-0.012l0 0.001c-0.004-0.13-0.11-0.233-0.241-0.233-0.005 0-0.010 0-0.015 0l0.001-0c-0.002-0-0.005-0-0.008-0-0.099 0-0.184 0.058-0.223 0.142l-0.001 0.002c-0.018 0.040-0.028 0.086-0.028 0.135 0 0.002 0 0.004 0 0.006v-0c0 0.050 0.013 0.101 0.038 0.155 0.039 0.076 0.083 0.142 0.134 0.201l-0.001-0.001zM17.793 31.157h-0.416c-0.010 0.099-0.037 0.19-0.078 0.273l0.002-0.005c-0.038 0.072-0.096 0.128-0.166 0.164l-0.002 0.001c-0.076 0.036-0.166 0.057-0.26 0.057-0.010 0-0.020-0-0.029-0.001l0.001 0c-0.098 0-0.181-0.019-0.251-0.058s-0.127-0.094-0.173-0.165c-0.045-0.073-0.079-0.158-0.099-0.249l-0.001-0.005c-0.020-0.096-0.032-0.207-0.032-0.321 0-0.004 0-0.008 0-0.012v0.001-0.204c0-0.129 0.012-0.243 0.035-0.342 0.024-0.101 0.060-0.186 0.108-0.254s0.107-0.121 0.178-0.156c0.070-0.034 0.151-0.053 0.237-0.053 0.004 0 0.008 0 0.012 0h-0.001c0.116 0 0.211 0.020 0.283 0.060 0.071 0.038 0.127 0.097 0.162 0.168l0.001 0.002c0.039 0.078 0.065 0.169 0.073 0.265l0 0.003h0.416c-0.015-0.16-0.063-0.306-0.139-0.435l0.003 0.005c-0.073-0.125-0.176-0.223-0.309-0.294s-0.296-0.106-0.489-0.106c-0.152 0-0.289 0.027-0.411 0.080-0.123 0.055-0.227 0.133-0.31 0.23l-0.001 0.001c-0.086 0.1-0.153 0.22-0.2 0.361-0.043 0.136-0.068 0.292-0.068 0.454 0 0.006 0 0.013 0 0.019v-0.001 0.201c0 0.174 0.022 0.331 0.067 0.472s0.111 0.261 0.196 0.361c0.083 0.096 0.186 0.174 0.302 0.227l0.006 0.002c0.12 0.053 0.254 0.080 0.404 0.080 0.195 0 0.361-0.035 0.497-0.106s0.242-0.168 0.317-0.291c0.074-0.121 0.122-0.266 0.133-0.421l0-0.003zM20.102 30.801v-0.133c0-0.183-0.024-0.346-0.073-0.49-0.046-0.143-0.116-0.267-0.205-0.373l0.001 0.002c-0.085-0.1-0.191-0.179-0.311-0.232l-0.006-0.002c-0.117-0.051-0.253-0.081-0.395-0.081-0.005 0-0.009 0-0.014 0h0.001c-0.148 0-0.284 0.027-0.407 0.081-0.126 0.055-0.232 0.135-0.316 0.233l-0.001 0.001c-0.089 0.104-0.159 0.228-0.204 0.363l-0.002 0.008c-0.046 0.139-0.073 0.299-0.073 0.466 0 0.008 0 0.017 0 0.025l-0-0.001v0.133c0 0.183 0.024 0.347 0.073 0.492 0.050 0.145 0.12 0.269 0.209 0.371s0.196 0.18 0.317 0.234c0.123 0.053 0.259 0.080 0.407 0.080 0.15 0 0.286-0.027 0.409-0.080 0.125-0.056 0.231-0.135 0.315-0.233l0.001-0.001c0.089-0.102 0.157-0.226 0.204-0.371s0.072-0.309 0.072-0.492zM19.684 30.665v0.136c0 0.135-0.013 0.255-0.040 0.359-0.023 0.1-0.062 0.189-0.115 0.267l0.002-0.003c-0.090 0.13-0.239 0.215-0.407 0.215-0.009 0-0.017-0-0.025-0.001l0.001 0c-0.003 0-0.006 0-0.009 0-0.086 0-0.168-0.020-0.24-0.055l0.003 0.001c-0.075-0.039-0.137-0.094-0.185-0.159l-0.001-0.002c-0.051-0.072-0.090-0.16-0.116-0.264s-0.040-0.224-0.040-0.359v-0.136c0-0.135 0.013-0.254 0.040-0.357 0.024-0.099 0.064-0.186 0.117-0.264l-0.002 0.003c0.091-0.131 0.241-0.215 0.411-0.215 0.007 0 0.013 0 0.020 0l-0.001-0c0.092 0 0.175 0.018 0.248 0.055 0.076 0.037 0.138 0.092 0.183 0.158l0.001 0.002c0.051 0.070 0.089 0.157 0.115 0.261 0.027 0.103 0.040 0.222 0.040 0.357z"></path>
</svg>
