<!-- Generated by IcoMoon.io -->
<svg version="1.1" xmlns="http://www.w3.org/2000/svg" width="32" height="32" viewBox="0 0 32 32">
<title>group-6</title>
<path fill="#8e8f99" d="M16.471 15.367c-0.117-0.151-0.188-0.343-0.188-0.552 0-0.021 0.001-0.043 0.002-0.064l-0 0.003v-0.889c0-0.272 0.062-0.479 0.185-0.621s0.336-0.212 0.637-0.212c0.283 0 0.484 0.060 0.602 0.181 0.13 0.154 0.193 0.342 0.178 0.532v0.209h-0.506v-0.212c0-0.009 0-0.019 0-0.030 0-0.063-0.006-0.124-0.016-0.184l0.001 0.006c-0.009-0.050-0.035-0.093-0.072-0.123l-0-0c-0.046-0.030-0.102-0.049-0.163-0.049-0.007 0-0.014 0-0.021 0.001l0.001-0c-0.006-0-0.013-0.001-0.020-0.001-0.064 0-0.124 0.019-0.174 0.052l0.001-0.001c-0.042 0.034-0.072 0.081-0.084 0.134l-0 0.002c-0.013 0.061-0.020 0.13-0.020 0.202 0 0.006 0 0.013 0 0.019v-0.001 1.079c-0.001 0.012-0.002 0.027-0.002 0.041 0 0.096 0.025 0.186 0.068 0.265l-0.001-0.003c0.025 0.032 0.060 0.057 0.101 0.073s0.086 0.022 0.131 0.017c0.007 0.001 0.014 0.001 0.022 0.001 0.059 0 0.113-0.019 0.158-0.050l-0.001 0.001c0.039-0.032 0.066-0.078 0.075-0.13l0-0.001c0.012-0.072 0.017-0.144 0.016-0.216v-0.219h0.506v0.2c0.001 0.016 0.002 0.034 0.002 0.053 0 0.192-0.067 0.369-0.178 0.508l0.001-0.002c-0.116 0.132-0.314 0.198-0.605 0.198s-0.511-0.070-0.636-0.217zM18.577 15.376c-0.128-0.138-0.192-0.34-0.192-0.607v-0.935c0-0.264 0.064-0.464 0.192-0.599s0.342-0.203 0.641-0.203c0.297 0 0.51 0.068 0.638 0.203s0.193 0.335 0.193 0.599v0.935c0 0.264-0.065 0.466-0.195 0.606s-0.341 0.209-0.636 0.209c-0.294 0-0.512-0.070-0.641-0.208zM19.454 15.152c0.039-0.071 0.062-0.156 0.062-0.246 0-0.011-0-0.022-0.001-0.032l0 0.001v-1.144c0.001-0.009 0.001-0.019 0.001-0.030 0-0.088-0.023-0.171-0.062-0.244l0.001 0.003c-0.026-0.033-0.061-0.059-0.103-0.075s-0.088-0.021-0.133-0.016c-0.045-0.005-0.092 0-0.134 0.016s-0.078 0.042-0.104 0.074c-0.039 0.070-0.062 0.153-0.062 0.241 0 0.011 0 0.021 0.001 0.031l-0-0.001v1.15c-0.001 0.009-0.001 0.020-0.001 0.031 0 0.090 0.023 0.175 0.063 0.249l-0.001-0.003c0.029 0.029 0.066 0.053 0.107 0.069 0.038 0.015 0.082 0.023 0.127 0.023 0.092 0 0.177-0.035 0.24-0.093l-0 0v-0.005zM20.658 13.060h0.545l0.41 1.725 0.419-1.725h0.53l0.053 2.489h-0.392l-0.042-1.73-0.404 1.73h-0.314l-0.419-1.736-0.039 1.736h-0.396l0.049-2.489zM23.226 13.060h0.849c0.489 0 0.733 0.236 0.733 0.707 0 0.451-0.257 0.677-0.772 0.676h-0.289v1.106h-0.524l0.003-2.489zM23.95 14.124c0.014 0.002 0.030 0.003 0.046 0.003 0.091 0 0.176-0.031 0.243-0.082l-0.001 0.001c0.048-0.065 0.078-0.147 0.078-0.236 0-0.016-0.001-0.031-0.003-0.047l0 0.002c0-0.008 0-0.018 0-0.028 0-0.070-0.009-0.139-0.027-0.204l0.001 0.005c-0.007-0.025-0.021-0.048-0.039-0.068s-0.041-0.037-0.066-0.050c-0.061-0.026-0.132-0.041-0.207-0.041-0.010 0-0.019 0-0.029 0.001l0.001-0h-0.203v0.744h0.203zM25.563 13.060h0.563l0.577 2.489h-0.488l-0.114-0.574h-0.502l-0.117 0.574h-0.495l0.577-2.489zM26.044 14.687l-0.196-1.045-0.196 1.045h0.392zM27.169 13.060h0.367l0.702 1.42v-1.42h0.435v2.489h-0.349l-0.706-1.482v1.482h-0.449l0.001-2.489zM29.69 14.601l-0.584-1.537h0.491l0.356 0.987 0.334-0.987h0.481l-0.576 1.537v0.949h-0.503v-0.949zM17.279 16.638v0.13h-0.427v1.012h-0.179v-1.012h-0.43v-0.13h1.036zM18.619 17.78h-0.138c-0.001 0-0.003 0-0.004 0-0.013 0-0.025-0.004-0.035-0.011l0 0c-0.010-0.007-0.017-0.015-0.023-0.026l-0-0-0.124-0.271h-0.593l-0.124 0.271c-0.004 0.012-0.010 0.023-0.019 0.031l-0 0c-0.010 0.007-0.023 0.011-0.037 0.011-0.001 0-0.002-0-0.003-0h-0.138l0.524-1.142h0.182l0.53 1.137zM17.752 17.356h0.494l-0.21-0.465c-0.013-0.028-0.026-0.064-0.037-0.101l-0.002-0.007c-0.016 0.053-0.023 0.073-0.030 0.094l0.010-0.033-0.019 0.048-0.207 0.464zM19.522 17.668c0.014 0.001 0.031 0.002 0.048 0.002 0.075 0 0.147-0.014 0.214-0.038l-0.004 0.001c0.023-0.008 0.046-0.018 0.070-0.028v-0.257h-0.21c-0.005 0-0.010 0-0.015-0.002l-0.013-0.007-0.008-0.009c-0.002-0.003-0.003-0.007-0.003-0.011v-0.088h0.406v0.438c-0.064 0.041-0.137 0.073-0.216 0.092l-0.005 0.001c-0.037 0.010-0.082 0.018-0.128 0.023l-0.003 0c-0.044 0.004-0.096 0.007-0.148 0.007-0.002 0-0.004 0-0.005 0h0c-0.002 0-0.005 0-0.008 0-0.092 0-0.18-0.016-0.262-0.045l0.006 0.002c-0.081-0.028-0.15-0.068-0.21-0.12l0.001 0.001c-0.056-0.050-0.102-0.11-0.134-0.178l-0.001-0.003c-0.030-0.068-0.048-0.147-0.048-0.23 0-0.003 0-0.005 0-0.008v0c-0-0.007-0-0.015-0-0.023 0-0.159 0.070-0.301 0.182-0.397l0.001-0.001c0.059-0.051 0.128-0.091 0.205-0.117l0.004-0.001c0.082-0.027 0.175-0.043 0.273-0.043 0.003 0 0.006 0 0.009 0h-0c0.049 0 0.097 0.003 0.146 0.010 0.086 0.013 0.163 0.039 0.234 0.076l-0.004-0.002c0.035 0.019 0.064 0.039 0.092 0.061l-0.001-0.001-0.050 0.071c-0.009 0.013-0.023 0.022-0.040 0.022-0 0-0 0-0.001 0h0c-0 0-0.001 0-0.001 0-0.011 0-0.022-0.003-0.031-0.009l0 0c-0.020-0.009-0.037-0.018-0.053-0.028l0.002 0.001c-0.048-0.026-0.104-0.045-0.163-0.056l-0.003-0c-0.039-0.006-0.084-0.010-0.129-0.010-0.001 0-0.003 0-0.004 0h0c-0.003-0-0.006-0-0.009-0-0.069 0-0.136 0.012-0.197 0.033l0.004-0.001c-0.060 0.021-0.111 0.051-0.154 0.090l0-0c-0.042 0.039-0.075 0.086-0.096 0.139l-0.001 0.003c-0.022 0.057-0.035 0.122-0.035 0.191s0.013 0.134 0.037 0.194l-0.001-0.004c0.051 0.11 0.143 0.193 0.255 0.233l0.003 0.001c0.067 0.020 0.137 0.027 0.207 0.023zM21.192 17.65h0.572v0.13h-0.747v-1.142h0.179l-0.004 1.012zM22.359 17.78h-0.179v-1.142h0.179v1.142zM23.025 16.643c0.011 0.005 0.020 0.012 0.027 0.021l0 0 0.766 0.861c-0-0.006-0.001-0.013-0.001-0.020s0-0.014 0.001-0.021l-0 0.001v-0.851h0.156v1.146h-0.090c-0.002 0-0.004 0-0.007 0-0.012 0-0.023-0.002-0.033-0.006l0.001 0c-0.011-0.006-0.020-0.013-0.028-0.022l-0-0-0.765-0.86v0.888h-0.15v-1.142h0.093c0.010 0 0.020 0.002 0.029 0.005zM25.293 16.638v0.126h-0.635v0.377h0.514v0.121h-0.514v0.39h0.635v0.126h-0.819v-1.139h0.819zM6.522 9.587l7.954 1.949v6.829l-7.954-1.948v-6.83zM6.011 9.005v7.744l8.974 2.199v-7.743l-8.974-2.2z"></path>
<path fill="#8e8f99" d="M10.821 22.544l-8.975-2.201v-7.743l8.975 2.2v7.744zM6.16 9.5l7.851 1.925-3.339 2.882-7.852-1.925 3.34-2.881zM6.011 9.005l-4.165 3.594 8.975 2.2 4.164-3.594-8.974-2.2zM11.326 22.108l3.659-3.158-3.659-0.898v4.056z"></path>
</svg>
