<!-- Generated by IcoMoon.io -->
<svg version="1.1" xmlns="http://www.w3.org/2000/svg" width="32" height="32" viewBox="0 0 32 32">
<title>group-3</title>
<path fill="#8e8f99" d="M4.953 30.344c0.024 0.001 0.045 0.010 0.062 0.024l-0-0 0.161 0.151c-0.126 0.122-0.276 0.219-0.443 0.283l-0.009 0.003c-0.178 0.066-0.383 0.104-0.597 0.104-0.015 0-0.030-0-0.045-0.001l0.002 0c-0.010 0-0.022 0-0.034 0-0.204 0-0.399-0.035-0.58-0.1l0.012 0.004c-0.176-0.063-0.327-0.155-0.455-0.272l0.001 0.001c-0.124-0.115-0.223-0.255-0.29-0.411l-0.003-0.008c-0.065-0.153-0.102-0.331-0.102-0.518 0-0.007 0-0.013 0-0.020v0.001c-0-0.005-0-0.011-0-0.017 0-0.189 0.041-0.369 0.113-0.53l-0.003 0.008c0.070-0.156 0.176-0.298 0.311-0.419 0.137-0.118 0.301-0.211 0.482-0.273 0.198-0.065 0.408-0.098 0.62-0.096 0.197-0.004 0.393 0.026 0.576 0.087 0.159 0.059 0.305 0.141 0.432 0.242l-0.135 0.161c-0.010 0.011-0.021 0.021-0.033 0.029l-0.001 0c-0.013 0.008-0.029 0.012-0.046 0.012-0.003 0-0.006-0-0.008-0l0 0c-0.021-0.001-0.041-0.007-0.059-0.017l0.001 0-0.072-0.043-0.1-0.055c-0.092-0.044-0.199-0.078-0.312-0.095l-0.006-0.001c-0.067-0.011-0.145-0.017-0.223-0.017-0.005 0-0.011 0-0.016 0h0.001c-0.005-0-0.011-0-0.016-0-0.154 0-0.302 0.026-0.439 0.075l0.009-0.003c-0.135 0.047-0.251 0.116-0.35 0.203l0.001-0.001c-0.096 0.089-0.173 0.196-0.225 0.317l-0.002 0.006c-0.052 0.121-0.082 0.262-0.082 0.41 0 0.005 0 0.011 0 0.016v-0.001c-0.002 0.147 0.025 0.293 0.082 0.432 0.104 0.245 0.303 0.432 0.55 0.518l0.006 0.002c0.131 0.046 0.272 0.070 0.414 0.069 0.006 0 0.012 0 0.019 0 0.080 0 0.158-0.005 0.235-0.015l-0.009 0.001c0.204-0.021 0.386-0.101 0.532-0.222l-0.002 0.001c0.021-0.017 0.047-0.027 0.076-0.027h0zM9.59 29.586c0 0.005 0 0.012 0 0.018 0 0.186-0.040 0.363-0.111 0.523l0.003-0.008c-0.065 0.155-0.168 0.296-0.302 0.414s-0.296 0.211-0.475 0.272c-0.182 0.061-0.392 0.096-0.61 0.096s-0.428-0.035-0.624-0.1l0.014 0.004c-0.182-0.064-0.339-0.157-0.474-0.274l0.002 0.001c-0.129-0.114-0.232-0.254-0.302-0.411l-0.003-0.008c-0.069-0.158-0.109-0.341-0.109-0.535s0.040-0.377 0.112-0.543l-0.003 0.009c0.069-0.156 0.172-0.299 0.305-0.42 0.135-0.114 0.295-0.204 0.472-0.262 0.182-0.062 0.392-0.098 0.611-0.098s0.428 0.036 0.624 0.102l-0.014-0.004c0.178 0.062 0.34 0.155 0.474 0.273 0.253 0.227 0.411 0.555 0.411 0.919 0 0.011-0 0.021-0 0.032l0-0.002zM9.168 29.586c0-0.006 0-0.014 0-0.021 0-0.147-0.028-0.287-0.079-0.416l0.003 0.008c-0.098-0.249-0.298-0.439-0.548-0.521l-0.006-0.002c-0.132-0.045-0.285-0.070-0.444-0.070s-0.311 0.026-0.454 0.073l0.010-0.003c-0.132 0.046-0.245 0.115-0.34 0.203l0.001-0.001c-0.093 0.087-0.167 0.195-0.215 0.315l-0.002 0.006c-0.048 0.128-0.077 0.275-0.077 0.429s0.028 0.301 0.079 0.438l-0.003-0.009c0.050 0.126 0.123 0.234 0.216 0.321l0 0c0.094 0.088 0.21 0.156 0.339 0.201 0.286 0.091 0.601 0.091 0.887 0 0.132-0.045 0.245-0.114 0.34-0.202l-0.001 0.001c0.092-0.088 0.165-0.195 0.213-0.315l0.002-0.006c0.054-0.138 0.080-0.283 0.076-0.429zM12.754 30.035l0.042 0.096c0.016-0.034 0.030-0.065 0.046-0.096 0.018-0.037 0.035-0.068 0.054-0.097l-0.002 0.003 1.026-1.593c0.020-0.027 0.038-0.045 0.058-0.050 0.022-0.006 0.047-0.009 0.073-0.009 0.004 0 0.008 0 0.011 0l-0.001-0h0.303v2.592h-0.359v-1.987c-0.001-0.013-0.002-0.029-0.002-0.044s0.001-0.031 0.002-0.047l-0 0.002-1.032 1.616c-0.013 0.024-0.034 0.045-0.060 0.059s-0.057 0.022-0.088 0.022h-0.058c-0.031 0-0.062-0.007-0.088-0.021s-0.047-0.035-0.060-0.059l-1.062-1.626v2.081h-0.347v-2.586h0.303c0.003-0 0.007-0 0.011-0 0.026 0 0.051 0.003 0.075 0.010l-0.002-0c0.024 0.010 0.044 0.027 0.056 0.049l0 0.001 1.048 1.595c0.020 0.027 0.037 0.057 0.051 0.090l0.001 0.003zM16.614 29.907v0.971h-0.402v-2.588h0.895c0.169-0.003 0.338 0.016 0.5 0.057 0.13 0.032 0.25 0.086 0.353 0.161 0.089 0.070 0.158 0.157 0.201 0.254 0.043 0.093 0.068 0.201 0.068 0.316 0 0.005-0 0.011-0 0.016v-0.001c0 0.003 0 0.006 0 0.010 0 0.237-0.114 0.447-0.289 0.579l-0.002 0.001c-0.101 0.076-0.219 0.135-0.348 0.17l-0.007 0.002c-0.156 0.043-0.32 0.063-0.484 0.060l-0.486-0.007zM16.614 29.629h0.486c0.106 0.001 0.211-0.012 0.311-0.039 0.086-0.025 0.161-0.063 0.227-0.112l-0.002 0.001c0.113-0.090 0.185-0.228 0.185-0.383 0-0.003-0-0.005-0-0.008v0c0.005-0.072-0.009-0.144-0.040-0.211s-0.079-0.127-0.14-0.177c-0.135-0.089-0.299-0.141-0.477-0.141-0.022 0-0.044 0.001-0.066 0.002l0.003-0h-0.486v1.067zM22.011 30.881h-0.317c-0.002 0-0.003 0-0.005 0-0.031 0-0.059-0.009-0.084-0.024l0.001 0c-0.022-0.015-0.040-0.035-0.052-0.059l-0-0.001-0.273-0.626h-1.371l-0.283 0.626c-0.025 0.050-0.076 0.084-0.135 0.084-0.002 0-0.004-0-0.006-0h-0.317l1.204-2.592h0.418l1.221 2.592zM20.023 29.919h1.132l-0.478-1.055c-0.033-0.068-0.064-0.149-0.087-0.233l-0.003-0.011-0.046 0.136c-0.014 0.041-0.030 0.079-0.044 0.11l-0.474 1.053zM23.745 28.301c0.024 0.011 0.044 0.026 0.060 0.046l0 0 1.757 1.954v-2.012h0.359v2.592h-0.201c-0.002 0-0.003 0-0.005 0-0.028 0-0.054-0.006-0.078-0.016l0.001 0c-0.025-0.012-0.046-0.028-0.064-0.048l-0-0-1.755-1.952c0.001 0.013 0.002 0.029 0.002 0.044s-0.001 0.031-0.002 0.047l0-0.002v1.926h-0.359v-2.592h0.213c0.001-0 0.003-0 0.005-0 0.024 0 0.047 0.004 0.069 0.012l-0.001-0zM28.88 29.85v1.029h-0.402v-1.029l-1.11-1.561h0.359c0.003-0 0.007-0 0.010-0 0.028 0 0.054 0.008 0.076 0.023l-0.001-0c0.022 0.017 0.040 0.036 0.054 0.058l0.695 1.007c0.047 0.066 0.088 0.142 0.12 0.223l0.002 0.007 0.052-0.111c0.022-0.046 0.045-0.084 0.070-0.121l-0.002 0.003 0.684-1.014c0.015-0.021 0.032-0.039 0.051-0.055l0.001-0c0.022-0.016 0.050-0.026 0.080-0.026 0.002 0 0.004 0 0.006 0h0.363l-1.112 1.568zM12.555 23.94c0.175 0.019 0.351 0.034 0.53 0.048 2.709-1.035 5-2.73 6.588-4.872s2.402-4.636 2.339-7.171l-2.985-2.551c0.607 2.699 0.323 5.489-0.82 8.058s-3.1 4.815-5.652 6.488z"></path>
<path fill="#8e8f99" d="M11.489 23.821l0.080 0.014c2.727-1.667 4.806-3.994 5.969-6.681s1.355-5.61 0.552-8.392l-4.252-3.633c1.72 2.986 2.412 6.328 1.996 9.637s-1.923 6.449-4.345 9.055zM25.909 14.94c-0.722 2.785-2.477 5.297-5.003 7.163-0.688 0.516-1.467 1-2.286 1.416l-0.091 0.042c2.057-0.517 3.947-1.43 5.526-2.669s2.803-2.772 3.578-4.48l-1.724-1.472z"></path>
<path fill="#8e8f99" d="M25.233 14.53l-2.455-2.098c-0.047 2.392-0.843 4.729-2.305 6.769s-3.537 3.708-6.008 4.831h0.012c0.551 0 1.101-0.028 1.648-0.084 2.31-0.806 4.351-2.087 5.94-3.731s2.678-3.597 3.168-5.688zM11.844 3.597l-2.929-2.506c-2.618 0.865-4.87 2.384-6.461 4.36s-2.446 4.317-2.454 6.715c0.010 2.65 1.054 5.222 2.967 7.308s4.586 3.568 7.595 4.21c2.686-2.796 4.259-6.252 4.49-9.864s-0.893-7.193-3.207-10.223zM32 14.144c-0.011-3.144-1.477-6.157-4.079-8.38s-6.129-3.476-9.809-3.485c-1.7-0.002-3.387 0.267-4.973 0.791l17.933 15.322c0.614-1.354 0.929-2.794 0.928-4.247z"></path>
</svg>
