<svg aria-hidden="true" style="position: absolute; width: 0; height: 0; overflow: hidden;" version="1.1" xmlns="http://www.w3.org/2000/svg" xmlns:xlink="http://www.w3.org/1999/xlink">
<defs>
<symbol id="icon-twitter-1" viewBox="0 0 32 32">
<path fill="#f4f4fd" style="fill: var(--color1, #f4f4fd)" d="M32 6.078c-1.19 0.522-2.458 0.868-3.78 1.036 1.36-0.817 2.382-2.078 2.873-3.58l0.013-0.046c-1.197 0.723-2.591 1.274-4.076 1.574l-0.084 0.014c-1.202-1.279-2.904-2.075-4.792-2.076h-0c-3.632 0-6.556 2.948-6.556 6.562 0 0.52 0.044 1.020 0.152 1.496-5.454-0.266-10.28-2.88-13.522-6.862-0.563 0.95-0.896 2.094-0.898 3.316v0c0.002 2.263 1.148 4.257 2.891 5.437l0.023 0.015c-1.092-0.030-2.109-0.326-2.997-0.825l0.033 0.017v0.072c0 3.188 2.274 5.836 5.256 6.446-0.501 0.137-1.075 0.216-1.669 0.216-0.018 0-0.036-0-0.054-0l0.003 0c-0.031 0.001-0.067 0.001-0.103 0.001-0.403 0-0.796-0.041-1.176-0.119l0.037 0.006c0.85 2.598 3.262 4.508 6.13 4.57-2.214 1.744-5.044 2.798-8.12 2.798-0.005 0-0.010 0-0.015 0h0.001c-0.538 0-1.054-0.024-1.57-0.090 2.826 1.846 6.287 2.944 10.004 2.944 0.021 0 0.042-0 0.063-0h-0.003c12.072 0 18.672-10 18.672-18.668 0-0.29-0.010-0.57-0.024-0.848 1.299-0.937 2.391-2.066 3.258-3.359l0.030-0.047z"></path>
</symbol>
<symbol id="icon-group-6" viewBox="0 0 32 32">
<path fill="#8e8f99" style="fill: var(--color2, #8e8f99)" d="M16.471 15.367c-0.117-0.151-0.188-0.343-0.188-0.552 0-0.021 0.001-0.043 0.002-0.064l-0 0.003v-0.889c0-0.272 0.062-0.479 0.185-0.621s0.336-0.212 0.637-0.212c0.283 0 0.484 0.060 0.602 0.181 0.13 0.154 0.193 0.342 0.178 0.532v0.209h-0.506v-0.212c0-0.009 0-0.019 0-0.030 0-0.063-0.006-0.124-0.016-0.184l0.001 0.006c-0.009-0.050-0.035-0.093-0.072-0.123l-0-0c-0.046-0.030-0.102-0.049-0.163-0.049-0.007 0-0.014 0-0.021 0.001l0.001-0c-0.006-0-0.013-0.001-0.020-0.001-0.064 0-0.124 0.019-0.174 0.052l0.001-0.001c-0.042 0.034-0.072 0.081-0.084 0.134l-0 0.002c-0.013 0.061-0.020 0.13-0.020 0.202 0 0.006 0 0.013 0 0.019v-0.001 1.079c-0.001 0.012-0.002 0.027-0.002 0.041 0 0.096 0.025 0.186 0.068 0.265l-0.001-0.003c0.025 0.032 0.060 0.057 0.101 0.073s0.086 0.022 0.131 0.017c0.007 0.001 0.014 0.001 0.022 0.001 0.059 0 0.113-0.019 0.158-0.050l-0.001 0.001c0.039-0.032 0.066-0.078 0.075-0.13l0-0.001c0.012-0.072 0.017-0.144 0.016-0.216v-0.219h0.506v0.2c0.001 0.016 0.002 0.034 0.002 0.053 0 0.192-0.067 0.369-0.178 0.508l0.001-0.002c-0.116 0.132-0.314 0.198-0.605 0.198s-0.511-0.070-0.636-0.217zM18.577 15.376c-0.128-0.138-0.192-0.34-0.192-0.607v-0.935c0-0.264 0.064-0.464 0.192-0.599s0.342-0.203 0.641-0.203c0.297 0 0.51 0.068 0.638 0.203s0.193 0.335 0.193 0.599v0.935c0 0.264-0.065 0.466-0.195 0.606s-0.341 0.209-0.636 0.209c-0.294 0-0.512-0.070-0.641-0.208zM19.454 15.152c0.039-0.071 0.062-0.156 0.062-0.246 0-0.011-0-0.022-0.001-0.032l0 0.001v-1.144c0.001-0.009 0.001-0.019 0.001-0.030 0-0.088-0.023-0.171-0.062-0.244l0.001 0.003c-0.026-0.033-0.061-0.059-0.103-0.075s-0.088-0.021-0.133-0.016c-0.045-0.005-0.092 0-0.134 0.016s-0.078 0.042-0.104 0.074c-0.039 0.070-0.062 0.153-0.062 0.241 0 0.011 0 0.021 0.001 0.031l-0-0.001v1.15c-0.001 0.009-0.001 0.020-0.001 0.031 0 0.090 0.023 0.175 0.063 0.249l-0.001-0.003c0.029 0.029 0.066 0.053 0.107 0.069 0.038 0.015 0.082 0.023 0.127 0.023 0.092 0 0.177-0.035 0.24-0.093l-0 0v-0.005zM20.658 13.060h0.545l0.41 1.725 0.419-1.725h0.53l0.053 2.489h-0.392l-0.042-1.73-0.404 1.73h-0.314l-0.419-1.736-0.039 1.736h-0.396l0.049-2.489zM23.226 13.060h0.849c0.489 0 0.733 0.236 0.733 0.707 0 0.451-0.257 0.677-0.772 0.676h-0.289v1.106h-0.524l0.003-2.489zM23.95 14.124c0.014 0.002 0.030 0.003 0.046 0.003 0.091 0 0.176-0.031 0.243-0.082l-0.001 0.001c0.048-0.065 0.078-0.147 0.078-0.236 0-0.016-0.001-0.031-0.003-0.047l0 0.002c0-0.008 0-0.018 0-0.028 0-0.070-0.009-0.139-0.027-0.204l0.001 0.005c-0.007-0.025-0.021-0.048-0.039-0.068s-0.041-0.037-0.066-0.050c-0.061-0.026-0.132-0.041-0.207-0.041-0.010 0-0.019 0-0.029 0.001l0.001-0h-0.203v0.744h0.203zM25.563 13.060h0.563l0.577 2.489h-0.488l-0.114-0.574h-0.502l-0.117 0.574h-0.495l0.577-2.489zM26.044 14.687l-0.196-1.045-0.196 1.045h0.392zM27.169 13.060h0.367l0.702 1.42v-1.42h0.435v2.489h-0.349l-0.706-1.482v1.482h-0.449l0.001-2.489zM29.69 14.601l-0.584-1.537h0.491l0.356 0.987 0.334-0.987h0.481l-0.576 1.537v0.949h-0.503v-0.949zM17.279 16.638v0.13h-0.427v1.012h-0.179v-1.012h-0.43v-0.13h1.036zM18.619 17.78h-0.138c-0.001 0-0.003 0-0.004 0-0.013 0-0.025-0.004-0.035-0.011l0 0c-0.010-0.007-0.017-0.015-0.023-0.026l-0-0-0.124-0.271h-0.593l-0.124 0.271c-0.004 0.012-0.010 0.023-0.019 0.031l-0 0c-0.010 0.007-0.023 0.011-0.037 0.011-0.001 0-0.002-0-0.003-0h-0.138l0.524-1.142h0.182l0.53 1.137zM17.752 17.356h0.494l-0.21-0.465c-0.013-0.028-0.026-0.064-0.037-0.101l-0.002-0.007c-0.016 0.053-0.023 0.073-0.030 0.094l0.010-0.033-0.019 0.048-0.207 0.464zM19.522 17.668c0.014 0.001 0.031 0.002 0.048 0.002 0.075 0 0.147-0.014 0.214-0.038l-0.004 0.001c0.023-0.008 0.046-0.018 0.070-0.028v-0.257h-0.21c-0.005 0-0.010 0-0.015-0.002l-0.013-0.007-0.008-0.009c-0.002-0.003-0.003-0.007-0.003-0.011v-0.088h0.406v0.438c-0.064 0.041-0.137 0.073-0.216 0.092l-0.005 0.001c-0.037 0.010-0.082 0.018-0.128 0.023l-0.003 0c-0.044 0.004-0.096 0.007-0.148 0.007-0.002 0-0.004 0-0.005 0h0c-0.002 0-0.005 0-0.008 0-0.092 0-0.18-0.016-0.262-0.045l0.006 0.002c-0.081-0.028-0.15-0.068-0.21-0.12l0.001 0.001c-0.056-0.050-0.102-0.11-0.134-0.178l-0.001-0.003c-0.030-0.068-0.048-0.147-0.048-0.23 0-0.003 0-0.005 0-0.008v0c-0-0.007-0-0.015-0-0.023 0-0.159 0.070-0.301 0.182-0.397l0.001-0.001c0.059-0.051 0.128-0.091 0.205-0.117l0.004-0.001c0.082-0.027 0.175-0.043 0.273-0.043 0.003 0 0.006 0 0.009 0h-0c0.049 0 0.097 0.003 0.146 0.010 0.086 0.013 0.163 0.039 0.234 0.076l-0.004-0.002c0.035 0.019 0.064 0.039 0.092 0.061l-0.001-0.001-0.050 0.071c-0.009 0.013-0.023 0.022-0.040 0.022-0 0-0 0-0.001 0h0c-0 0-0.001 0-0.001 0-0.011 0-0.022-0.003-0.031-0.009l0 0c-0.020-0.009-0.037-0.018-0.053-0.028l0.002 0.001c-0.048-0.026-0.104-0.045-0.163-0.056l-0.003-0c-0.039-0.006-0.084-0.010-0.129-0.010-0.001 0-0.003 0-0.004 0h0c-0.003-0-0.006-0-0.009-0-0.069 0-0.136 0.012-0.197 0.033l0.004-0.001c-0.060 0.021-0.111 0.051-0.154 0.090l0-0c-0.042 0.039-0.075 0.086-0.096 0.139l-0.001 0.003c-0.022 0.057-0.035 0.122-0.035 0.191s0.013 0.134 0.037 0.194l-0.001-0.004c0.051 0.11 0.143 0.193 0.255 0.233l0.003 0.001c0.067 0.020 0.137 0.027 0.207 0.023zM21.192 17.65h0.572v0.13h-0.747v-1.142h0.179l-0.004 1.012zM22.359 17.78h-0.179v-1.142h0.179v1.142zM23.025 16.643c0.011 0.005 0.020 0.012 0.027 0.021l0 0 0.766 0.861c-0-0.006-0.001-0.013-0.001-0.020s0-0.014 0.001-0.021l-0 0.001v-0.851h0.156v1.146h-0.090c-0.002 0-0.004 0-0.007 0-0.012 0-0.023-0.002-0.033-0.006l0.001 0c-0.011-0.006-0.020-0.013-0.028-0.022l-0-0-0.765-0.86v0.888h-0.15v-1.142h0.093c0.010 0 0.020 0.002 0.029 0.005zM25.293 16.638v0.126h-0.635v0.377h0.514v0.121h-0.514v0.39h0.635v0.126h-0.819v-1.139h0.819zM6.522 9.587l7.954 1.949v6.829l-7.954-1.948v-6.83zM6.011 9.005v7.744l8.974 2.199v-7.743l-8.974-2.2z"></path>
<path fill="#8e8f99" style="fill: var(--color2, #8e8f99)" d="M10.821 22.544l-8.975-2.201v-7.743l8.975 2.2v7.744zM6.16 9.5l7.851 1.925-3.339 2.882-7.852-1.925 3.34-2.881zM6.011 9.005l-4.165 3.594 8.975 2.2 4.164-3.594-8.974-2.2zM11.326 22.108l3.659-3.158-3.659-0.898v4.056z"></path>
</symbol>
<symbol id="icon-linkedin-1" viewBox="0 0 32 32">
<path fill="#f4f4fd" style="fill: var(--color1, #f4f4fd)" d="M31.992 32v-0.001h0.008v-11.736c0-5.741-1.236-10.164-7.948-10.164-3.227 0-5.392 1.771-6.276 3.449h-0.093v-2.913h-6.364v21.364h6.627v-10.579c0-2.785 0.528-5.479 3.977-5.479 3.399 0 3.449 3.179 3.449 5.657v10.401h6.62zM0.528 10.636h6.635v21.364h-6.635v-21.364zM3.843 0c-2.121 0-3.843 1.721-3.843 3.843s1.721 3.879 3.843 3.879c2.121 0 3.843-1.757 3.843-3.879-0.002-2.122-1.721-3.841-3.843-3.843h-0z"></path>
</symbol>
<symbol id="icon-instagram-2" viewBox="0 0 32 32">
<path fill="#f4f4fd" style="fill: var(--color1, #f4f4fd)" d="M31.969 9.408c-0.075-1.7-0.35-2.869-0.744-3.882-0.424-1.111-1.053-2.058-1.849-2.837l-0.001-0.001c-0.779-0.792-1.724-1.419-2.778-1.826l-0.054-0.018c-1.019-0.394-2.182-0.669-3.882-0.744-1.713-0.081-2.257-0.1-6.601-0.1s-4.888 0.019-6.595 0.094c-1.7 0.075-2.869 0.35-3.882 0.744-1.111 0.424-2.058 1.053-2.837 1.849l-0.001 0.001c-0.792 0.78-1.419 1.724-1.826 2.778l-0.018 0.054c-0.394 1.019-0.669 2.182-0.744 3.882-0.081 1.713-0.1 2.257-0.1 6.601s0.019 4.888 0.094 6.595c0.075 1.7 0.35 2.869 0.744 3.882 0.427 1.11 1.056 2.057 1.849 2.837l0.001 0.001c0.78 0.792 1.724 1.419 2.778 1.826l0.054 0.018c1.019 0.394 2.182 0.669 3.882 0.744 1.706 0.075 2.25 0.094 6.595 0.094s4.888-0.018 6.595-0.094c1.7-0.075 2.869-0.35 3.882-0.744 2.157-0.849 3.832-2.525 4.663-4.627l0.019-0.055c0.394-1.019 0.669-2.182 0.744-3.882 0.075-1.707 0.094-2.251 0.094-6.595s-0.006-4.888-0.081-6.595zM29.087 22.473c-0.069 1.563-0.331 2.407-0.55 2.969-0.551 1.4-1.638 2.487-3.002 3.025l-0.036 0.013c-0.563 0.219-1.413 0.481-2.969 0.55-1.688 0.075-2.194 0.094-6.464 0.094s-4.782-0.018-6.464-0.094c-1.563-0.069-2.407-0.331-2.969-0.55-0.721-0.269-1.335-0.676-1.837-1.193l-0.001-0.001c-0.517-0.504-0.923-1.118-1.183-1.804l-0.011-0.034c-0.219-0.563-0.481-1.413-0.55-2.969-0.075-1.688-0.094-2.194-0.094-6.464s0.019-4.782 0.094-6.464c0.069-1.563 0.331-2.407 0.55-2.969 0.269-0.722 0.678-1.337 1.198-1.836l0.002-0.002c0.504-0.517 1.118-0.923 1.804-1.183l0.034-0.011c0.563-0.219 1.413-0.481 2.969-0.55 1.688-0.075 2.194-0.094 6.464-0.094 4.276 0 4.782 0.019 6.464 0.094 1.563 0.069 2.407 0.331 2.969 0.55 0.721 0.269 1.335 0.676 1.837 1.193l0.001 0.001c0.517 0.504 0.923 1.118 1.183 1.804l0.011 0.034c0.219 0.563 0.481 1.413 0.55 2.969 0.075 1.688 0.094 2.194 0.094 6.464s-0.019 4.77-0.094 6.457z"></path>
<path fill="#f4f4fd" style="fill: var(--color1, #f4f4fd)" d="M16.059 7.782c-4.538 0-8.22 3.682-8.22 8.22s3.682 8.22 8.22 8.22 8.22-3.682 8.22-8.22-3.682-8.22-8.22-8.22zM16.059 21.335c-2.901-0.058-5.23-2.423-5.23-5.332s2.329-5.274 5.224-5.332l0.005-0c2.901 0.058 5.23 2.423 5.23 5.332s-2.329 5.274-5.224 5.332l-0.005 0zM26.524 7.457c0 1.060-0.859 1.919-1.919 1.919s-1.919-0.859-1.919-1.919v0c0-1.060 0.859-1.919 1.919-1.919s1.919 0.859 1.919 1.919v0z"></path>
</symbol>
<symbol id="icon-group-5" viewBox="0 0 32 32">
<path fill="#8e8f99" style="fill: var(--color2, #8e8f99)" d="M2.434 23.808c0.117 0.127 0.188 0.297 0.188 0.484 0 0.003-0 0.006-0 0.009v-0c0.006 0.116-0.016 0.233-0.067 0.34s-0.127 0.203-0.224 0.281c-0.213 0.144-0.475 0.23-0.757 0.23-0.031 0-0.062-0.001-0.092-0.003l0.004 0h-1.486v-3.115h1.455c0.287-0.017 0.572 0.056 0.806 0.207 0.094 0.071 0.168 0.16 0.217 0.261s0.071 0.211 0.065 0.321c0 0.009 0.001 0.020 0.001 0.031 0 0.171-0.064 0.328-0.17 0.446l0.001-0.001c-0.115 0.123-0.267 0.21-0.438 0.243l-0.005 0.001c0.2 0.032 0.373 0.128 0.502 0.265l0 0zM0.691 23.338h0.622c0.013 0.001 0.029 0.002 0.045 0.002 0.131 0 0.252-0.039 0.354-0.106l-0.002 0.002c0.047-0.038 0.083-0.085 0.106-0.138s0.032-0.11 0.027-0.166c0.004-0.056-0.005-0.113-0.028-0.166s-0.058-0.1-0.104-0.139c-0.101-0.067-0.224-0.107-0.357-0.107-0.018 0-0.035 0.001-0.052 0.002l0.002-0h-0.612v0.817zM1.77 24.533c0.050-0.039 0.089-0.088 0.115-0.143s0.037-0.114 0.032-0.174c0.004-0.060-0.008-0.12-0.034-0.176s-0.066-0.105-0.117-0.144c-0.108-0.072-0.241-0.114-0.383-0.114-0.014 0-0.028 0-0.042 0.001l0.002-0h-0.652v0.857h0.661c0.012 0.001 0.027 0.001 0.041 0.001 0.14 0 0.27-0.041 0.379-0.111l-0.003 0.002zM5.409 25.148l-0.81-1.217h-0.304v1.217h-0.696v-3.115h1.318c0.332-0.021 0.661 0.074 0.918 0.265 0.184 0.169 0.295 0.392 0.313 0.628s-0.058 0.471-0.215 0.661c-0.163 0.168-0.385 0.28-0.629 0.317l0.862 1.245h-0.757zM4.295 23.506h0.57c0.396 0 0.593-0.157 0.593-0.472 0.004-0.064-0.007-0.128-0.032-0.189s-0.064-0.115-0.114-0.161c-0.108-0.080-0.244-0.128-0.391-0.128-0.020 0-0.040 0.001-0.059 0.003l0.003-0h-0.576l0.007 0.948zM9.215 24.521h-1.388l-0.245 0.627h-0.73l1.274-3.080h0.789l1.269 3.080h-0.73l-0.24-0.627zM9.029 24.049l-0.507-1.315-0.507 1.315h1.014zM13.98 25.148h-0.691l-1.55-2.118v2.118h-0.69v-3.115h0.69l1.55 2.13v-2.13h0.691v3.115zM17.925 24.402c-0.151 0.24-0.364 0.428-0.616 0.545l-0.009 0.004c-0.269 0.124-0.583 0.197-0.915 0.197-0.020 0-0.040-0-0.060-0.001l0.003 0h-1.231v-3.115h1.231c0.336-0.008 0.67 0.058 0.972 0.192 0.265 0.12 0.483 0.309 0.625 0.543 0.142 0.253 0.216 0.533 0.216 0.817s-0.074 0.564-0.216 0.817zM17.134 24.327c0.197-0.207 0.306-0.471 0.306-0.743s-0.108-0.536-0.306-0.743c-0.215-0.167-0.488-0.267-0.785-0.267-0.028 0-0.056 0.001-0.083 0.003l0.004-0h-0.48v2.016h0.48c0.316 0.018 0.627-0.077 0.865-0.265zM9.648 4.707s8.923 3.033 8.734 7.421v7.423s-8.916-3.034-8.73-7.423l-0.003-7.421zM26.331 17.813c1.62-1.010 3.549-1.684 5.617-1.877l0.052-0.004v-2.324c-2.345 0.813-4.333 2.289-5.669 4.204z"></path>
<path fill="#8e8f99" style="fill: var(--color2, #8e8f99)" d="M25.318 18.513c1.379-2.5 3.77-4.43 6.682-5.391v-6.695s-12.707 4.32-12.439 10.57v10.568s0.566-0.193 1.457-0.555c0-0.338 0-0.679 0.041-1.021 0.263-2.901 1.795-5.59 4.259-7.474z"></path>
<path fill="#8e8f99" style="fill: var(--color2, #8e8f99)" d="M24.11 22.439c0.075-0.799 0.232-1.534 0.465-2.234l-0.020 0.070c-1.534 1.628-2.464 3.647-2.657 5.775-0.017 0.175-0.029 0.386-0.034 0.6l-0 0.009c1.061-0.456 1.864-0.844 2.651-1.259l-0.207 0.099c-0.152-0.649-0.239-1.394-0.239-2.16 0-0.317 0.015-0.63 0.044-0.94l-0.003 0.040zM24.615 22.477c-0.025 0.257-0.039 0.556-0.039 0.859 0 0.677 0.071 1.337 0.207 1.974l-0.011-0.062c3.472-1.87 7.373-4.76 7.223-8.252v-0.304c-2.48 0.25-4.801 1.226-6.606 2.779-0.398 0.879-0.673 1.899-0.771 2.969l-0.003 0.038z"></path>
</symbol>
<symbol id="icon-group-4" viewBox="0 0 32 32">
<path fill="#8e8f99" style="fill: var(--color2, #8e8f99)" d="M4.982 12.959h-0.001c-0.909 0-1.646 0.664-1.646 1.484v0.001c0 0.819 0.737 1.484 1.646 1.484h0.001c0.909 0 1.646-0.664 1.646-1.484v-0.001c0-0.819-0.737-1.484-1.646-1.484zM17.128 12.485c-0.003-1.138-0.505-2.229-1.398-3.034s-2.102-1.258-3.364-1.261c-1.263 0.002-2.473 0.455-3.366 1.26s-1.396 1.896-1.398 3.034v6.276s9.525-0.956 9.526-6.275v-0.001zM0 20.821c0.002 0.792 0.352 1.551 0.973 2.111s1.463 0.876 2.341 0.878c0.878-0.002 1.72-0.318 2.34-0.878s0.971-1.318 0.973-2.11v-4.367s-6.628 0.666-6.628 4.366zM3.314 21.603c-0.172 0-0.339-0.046-0.482-0.132s-0.254-0.208-0.32-0.351-0.083-0.3-0.049-0.452c0.033-0.152 0.116-0.291 0.237-0.401s0.276-0.184 0.444-0.214c0.168-0.030 0.343-0.015 0.501 0.045s0.294 0.16 0.389 0.288c0.090 0.12 0.145 0.272 0.145 0.437 0 0.108-0.023 0.211-0.065 0.303l0.002-0.005c-0.046 0.1-0.11 0.185-0.187 0.254l-0.001 0.001c-0.081 0.073-0.176 0.131-0.282 0.17s-0.219 0.060-0.333 0.060v-0.003zM9.375 20.196v1.625h-0.335v-1.625h0.335zM10.022 20.89v0.261h-0.739v-0.261h0.739zM10.1 20.196v0.262h-0.817v-0.262h0.817zM11.629 20.971v0.077c0 0.123-0.017 0.234-0.050 0.333s-0.081 0.182-0.142 0.251c-0.061 0.068-0.134 0.121-0.219 0.157s-0.177 0.055-0.28 0.055c-0.102 0-0.195-0.018-0.28-0.055s-0.157-0.089-0.219-0.157c-0.062-0.069-0.11-0.153-0.144-0.251s-0.050-0.209-0.050-0.333v-0.077c0-0.124 0.017-0.235 0.050-0.333s0.081-0.182 0.142-0.251c0.062-0.069 0.135-0.122 0.219-0.158s0.178-0.055 0.28-0.055c0.103 0 0.196 0.018 0.28 0.055s0.158 0.089 0.219 0.158c0.062 0.069 0.109 0.153 0.143 0.251s0.051 0.208 0.051 0.333zM11.291 21.048v-0.079c0-0.086-0.008-0.162-0.023-0.228s-0.039-0.121-0.069-0.165-0.068-0.078-0.112-0.1c-0.044-0.023-0.094-0.035-0.151-0.035s-0.107 0.012-0.151 0.035c-0.043 0.022-0.080 0.056-0.11 0.1s-0.052 0.1-0.068 0.165c-0.015 0.063-0.023 0.136-0.023 0.211 0 0.006 0 0.012 0 0.018v-0.001 0.079c0 0.086 0.008 0.161 0.023 0.228s0.039 0.121 0.069 0.166c0.056 0.083 0.15 0.137 0.257 0.137 0.002 0 0.004-0 0.007-0h-0c0.057 0 0.107-0.012 0.151-0.035s0.081-0.057 0.11-0.102c0.030-0.045 0.052-0.101 0.068-0.166s0.023-0.142 0.023-0.228zM12.716 21.396c0-0.029-0.004-0.055-0.013-0.078s-0.024-0.045-0.047-0.065c-0.023-0.020-0.055-0.040-0.097-0.059s-0.096-0.039-0.162-0.060c-0.074-0.024-0.144-0.051-0.21-0.080s-0.123-0.064-0.174-0.104c-0.050-0.040-0.089-0.087-0.118-0.14s-0.042-0.114-0.042-0.184c0-0.068 0.015-0.129 0.045-0.184s0.071-0.103 0.125-0.143c0.054-0.040 0.117-0.071 0.19-0.093s0.154-0.032 0.242-0.032c0.12 0 0.224 0.022 0.314 0.065s0.159 0.102 0.208 0.177c0.050 0.075 0.075 0.161 0.075 0.258h-0.333c0-0.048-0.010-0.089-0.030-0.125s-0.049-0.065-0.089-0.086c-0.040-0.020-0.087-0.031-0.137-0.031-0.005 0-0.009 0-0.014 0l0.001-0c-0.058 0-0.106 0.009-0.145 0.027s-0.068 0.041-0.087 0.070c-0.018 0.027-0.029 0.061-0.029 0.097 0 0 0 0.001 0 0.001v-0c0 0.027 0.007 0.052 0.020 0.075s0.035 0.043 0.063 0.062 0.061 0.038 0.102 0.055c0.040 0.017 0.087 0.034 0.139 0.050 0.089 0.027 0.166 0.057 0.233 0.090s0.124 0.071 0.17 0.113c0.045 0.042 0.080 0.089 0.103 0.142s0.035 0.113 0.035 0.18c0 0.071-0.014 0.134-0.041 0.19s-0.067 0.103-0.119 0.142c-0.052 0.039-0.114 0.068-0.186 0.088s-0.153 0.030-0.242 0.030c-0.080 0-0.16-0.010-0.238-0.031s-0.149-0.054-0.213-0.097c-0.127-0.086-0.209-0.23-0.209-0.393 0-0.003 0-0.007 0-0.010v0.001h0.336c0 0.051 0.008 0.093 0.023 0.128s0.038 0.063 0.066 0.085c0.029 0.022 0.063 0.037 0.103 0.047s0.084 0.015 0.132 0.015c0.058 0 0.106-0.008 0.143-0.025s0.066-0.039 0.084-0.068c0.018-0.027 0.028-0.060 0.028-0.095 0-0.001 0-0.002-0-0.003v0zM14.005 20.196v1.625h-0.334v-1.625h0.334zM14.505 20.196v0.262h-1.326v-0.262h1.326zM15.787 21.56v0.261h-0.865v-0.261h0.865zM15.031 20.196v1.625h-0.335v-1.625h0.335zM15.674 20.858v0.254h-0.752v-0.254h0.752zM15.786 20.196v0.262h-0.864v-0.262h0.864zM15.982 20.196h0.606c0.124 0 0.231 0.019 0.32 0.056s0.159 0.092 0.208 0.165 0.073 0.163 0.073 0.269c0 0.087-0.015 0.162-0.045 0.224s-0.070 0.113-0.124 0.155c-0.053 0.041-0.115 0.074-0.182 0.097l-0.004 0.001-0.106 0.056h-0.527l-0.002-0.261h0.392c0.059 0 0.108-0.010 0.146-0.031s0.068-0.050 0.087-0.087c0.020-0.037 0.030-0.080 0.030-0.129 0-0.052-0.010-0.097-0.029-0.135s-0.049-0.067-0.088-0.087-0.089-0.030-0.148-0.030h-0.271v1.363h-0.335v-1.625zM16.89 21.821l-0.371-0.724 0.354-0.002 0.375 0.711v0.016h-0.358zM18.648 21.242h-0.414v-0.261h0.414c0.064 0 0.116-0.010 0.156-0.031s0.070-0.051 0.088-0.089c0.017-0.039 0.028-0.084 0.028-0.131s-0.010-0.093-0.028-0.134l0.001 0.002c-0.019-0.042-0.048-0.075-0.088-0.1s-0.092-0.038-0.156-0.038h-0.298v1.363h-0.335v-1.625h0.633c0.127 0 0.236 0.023 0.327 0.069 0.169 0.083 0.283 0.254 0.283 0.452 0 0.005-0 0.009-0 0.014v-0.001c0 0.105-0.024 0.196-0.073 0.272s-0.118 0.136-0.21 0.177c-0.090 0.039-0.195 0.062-0.305 0.062-0.008 0-0.016-0-0.023-0l0.001 0zM20.579 21.56v0.261h-0.865v-0.261h0.865zM19.823 20.196v1.625h-0.335v-1.625h0.335zM20.466 20.858v0.254h-0.752v-0.254h0.752zM20.578 20.196v0.262h-0.864v-0.262h0.864zM21.523 20.196v1.625h-0.334v-1.625h0.334zM22.023 20.196v0.262h-1.326v-0.262h1.326zM23.305 21.56v0.261h-0.865v-0.261h0.865zM22.549 20.196v1.625h-0.335v-1.625h0.335zM23.192 20.858v0.254h-0.752v-0.254h0.752zM23.303 20.196v0.262h-0.864v-0.262h0.864zM23.5 20.196h0.606c0.124 0 0.231 0.019 0.32 0.056s0.159 0.092 0.208 0.165c0.046 0.072 0.073 0.16 0.073 0.255 0 0.005-0 0.010-0 0.015l0-0.001c0 0.087-0.015 0.162-0.045 0.224s-0.070 0.113-0.124 0.155c-0.053 0.041-0.115 0.074-0.182 0.097l-0.004 0.001-0.106 0.056h-0.527l-0.002-0.261h0.392c0.059 0 0.108-0.010 0.146-0.031s0.068-0.050 0.087-0.087c0.020-0.037 0.030-0.080 0.030-0.129 0-0.052-0.010-0.097-0.029-0.135s-0.049-0.067-0.088-0.087c-0.040-0.019-0.087-0.030-0.137-0.030-0.004 0-0.008 0-0.012 0l0.001-0h-0.271v1.363h-0.335v-1.625zM24.408 21.821l-0.371-0.724 0.354-0.002 0.375 0.711v0.016h-0.358zM25.81 21.396c0-0.029-0.005-0.055-0.013-0.078s-0.024-0.045-0.047-0.065c-0.023-0.020-0.055-0.040-0.097-0.059s-0.096-0.039-0.162-0.060c-0.074-0.024-0.144-0.051-0.21-0.080s-0.123-0.064-0.174-0.104c-0.050-0.040-0.089-0.087-0.118-0.14s-0.042-0.114-0.042-0.184c0-0.068 0.015-0.129 0.045-0.184s0.071-0.103 0.125-0.143c0.054-0.040 0.117-0.071 0.19-0.093s0.154-0.032 0.242-0.032c0.12 0 0.224 0.022 0.314 0.065s0.158 0.102 0.208 0.177c0.050 0.075 0.075 0.161 0.075 0.258h-0.333c0-0.048-0.010-0.089-0.030-0.125s-0.049-0.065-0.089-0.086c-0.040-0.020-0.087-0.031-0.137-0.031-0.005 0-0.009 0-0.014 0l0.001-0c-0.058 0-0.106 0.009-0.145 0.027s-0.068 0.041-0.087 0.070c-0.018 0.027-0.029 0.061-0.029 0.097 0 0 0 0.001 0 0.001v-0c0 0.027 0.007 0.052 0.020 0.075s0.035 0.043 0.063 0.062 0.061 0.038 0.102 0.055c0.040 0.017 0.087 0.034 0.14 0.050 0.089 0.027 0.166 0.057 0.233 0.090s0.124 0.071 0.17 0.113c0.045 0.042 0.080 0.089 0.103 0.142s0.035 0.113 0.035 0.18c0 0.071-0.014 0.134-0.041 0.19s-0.067 0.103-0.119 0.142c-0.052 0.039-0.114 0.068-0.186 0.088s-0.153 0.030-0.242 0.030c-0.080 0-0.16-0.010-0.238-0.031s-0.149-0.054-0.213-0.097c-0.127-0.086-0.209-0.23-0.209-0.393 0-0.003 0-0.007 0-0.010v0.001h0.336c0 0.051 0.008 0.093 0.023 0.128s0.038 0.063 0.066 0.085c0.029 0.022 0.063 0.037 0.103 0.047s0.084 0.015 0.132 0.015c0.058 0 0.106-0.008 0.143-0.025s0.066-0.039 0.084-0.068c0.018-0.027 0.028-0.060 0.028-0.095 0-0.001 0-0.002-0-0.003v0z"></path>
</symbol>
<symbol id="icon-group-3" viewBox="0 0 32 32">
<path fill="#8e8f99" style="fill: var(--color2, #8e8f99)" d="M4.953 30.344c0.024 0.001 0.045 0.010 0.062 0.024l-0-0 0.161 0.151c-0.126 0.122-0.276 0.219-0.443 0.283l-0.009 0.003c-0.178 0.066-0.383 0.104-0.597 0.104-0.015 0-0.030-0-0.045-0.001l0.002 0c-0.010 0-0.022 0-0.034 0-0.204 0-0.399-0.035-0.58-0.1l0.012 0.004c-0.176-0.063-0.327-0.155-0.455-0.272l0.001 0.001c-0.124-0.115-0.223-0.255-0.29-0.411l-0.003-0.008c-0.065-0.153-0.102-0.331-0.102-0.518 0-0.007 0-0.013 0-0.020v0.001c-0-0.005-0-0.011-0-0.017 0-0.189 0.041-0.369 0.113-0.53l-0.003 0.008c0.070-0.156 0.176-0.298 0.311-0.419 0.137-0.118 0.301-0.211 0.482-0.273 0.198-0.065 0.408-0.098 0.62-0.096 0.197-0.004 0.393 0.026 0.576 0.087 0.159 0.059 0.305 0.141 0.432 0.242l-0.135 0.161c-0.010 0.011-0.021 0.021-0.033 0.029l-0.001 0c-0.013 0.008-0.029 0.012-0.046 0.012-0.003 0-0.006-0-0.008-0l0 0c-0.021-0.001-0.041-0.007-0.059-0.017l0.001 0-0.072-0.043-0.1-0.055c-0.092-0.044-0.199-0.078-0.312-0.095l-0.006-0.001c-0.067-0.011-0.145-0.017-0.223-0.017-0.005 0-0.011 0-0.016 0h0.001c-0.005-0-0.011-0-0.016-0-0.154 0-0.302 0.026-0.439 0.075l0.009-0.003c-0.135 0.047-0.251 0.116-0.35 0.203l0.001-0.001c-0.096 0.089-0.173 0.196-0.225 0.317l-0.002 0.006c-0.052 0.121-0.082 0.262-0.082 0.41 0 0.005 0 0.011 0 0.016v-0.001c-0.002 0.147 0.025 0.293 0.082 0.432 0.104 0.245 0.303 0.432 0.55 0.518l0.006 0.002c0.131 0.046 0.272 0.070 0.414 0.069 0.006 0 0.012 0 0.019 0 0.080 0 0.158-0.005 0.235-0.015l-0.009 0.001c0.204-0.021 0.386-0.101 0.532-0.222l-0.002 0.001c0.021-0.017 0.047-0.027 0.076-0.027h0zM9.59 29.586c0 0.005 0 0.012 0 0.018 0 0.186-0.040 0.363-0.111 0.523l0.003-0.008c-0.065 0.155-0.168 0.296-0.302 0.414s-0.296 0.211-0.475 0.272c-0.182 0.061-0.392 0.096-0.61 0.096s-0.428-0.035-0.624-0.1l0.014 0.004c-0.182-0.064-0.339-0.157-0.474-0.274l0.002 0.001c-0.129-0.114-0.232-0.254-0.302-0.411l-0.003-0.008c-0.069-0.158-0.109-0.341-0.109-0.535s0.040-0.377 0.112-0.543l-0.003 0.009c0.069-0.156 0.172-0.299 0.305-0.42 0.135-0.114 0.295-0.204 0.472-0.262 0.182-0.062 0.392-0.098 0.611-0.098s0.428 0.036 0.624 0.102l-0.014-0.004c0.178 0.062 0.34 0.155 0.474 0.273 0.253 0.227 0.411 0.555 0.411 0.919 0 0.011-0 0.021-0 0.032l0-0.002zM9.168 29.586c0-0.006 0-0.014 0-0.021 0-0.147-0.028-0.287-0.079-0.416l0.003 0.008c-0.098-0.249-0.298-0.439-0.548-0.521l-0.006-0.002c-0.132-0.045-0.285-0.070-0.444-0.070s-0.311 0.026-0.454 0.073l0.010-0.003c-0.132 0.046-0.245 0.115-0.34 0.203l0.001-0.001c-0.093 0.087-0.167 0.195-0.215 0.315l-0.002 0.006c-0.048 0.128-0.077 0.275-0.077 0.429s0.028 0.301 0.079 0.438l-0.003-0.009c0.050 0.126 0.123 0.234 0.216 0.321l0 0c0.094 0.088 0.21 0.156 0.339 0.201 0.286 0.091 0.601 0.091 0.887 0 0.132-0.045 0.245-0.114 0.34-0.202l-0.001 0.001c0.092-0.088 0.165-0.195 0.213-0.315l0.002-0.006c0.054-0.138 0.080-0.283 0.076-0.429zM12.754 30.035l0.042 0.096c0.016-0.034 0.030-0.065 0.046-0.096 0.018-0.037 0.035-0.068 0.054-0.097l-0.002 0.003 1.026-1.593c0.020-0.027 0.038-0.045 0.058-0.050 0.022-0.006 0.047-0.009 0.073-0.009 0.004 0 0.008 0 0.011 0l-0.001-0h0.303v2.592h-0.359v-1.987c-0.001-0.013-0.002-0.029-0.002-0.044s0.001-0.031 0.002-0.047l-0 0.002-1.032 1.616c-0.013 0.024-0.034 0.045-0.060 0.059s-0.057 0.022-0.088 0.022h-0.058c-0.031 0-0.062-0.007-0.088-0.021s-0.047-0.035-0.060-0.059l-1.062-1.626v2.081h-0.347v-2.586h0.303c0.003-0 0.007-0 0.011-0 0.026 0 0.051 0.003 0.075 0.010l-0.002-0c0.024 0.010 0.044 0.027 0.056 0.049l0 0.001 1.048 1.595c0.020 0.027 0.037 0.057 0.051 0.090l0.001 0.003zM16.614 29.907v0.971h-0.402v-2.588h0.895c0.169-0.003 0.338 0.016 0.5 0.057 0.13 0.032 0.25 0.086 0.353 0.161 0.089 0.070 0.158 0.157 0.201 0.254 0.043 0.093 0.068 0.201 0.068 0.316 0 0.005-0 0.011-0 0.016v-0.001c0 0.003 0 0.006 0 0.010 0 0.237-0.114 0.447-0.289 0.579l-0.002 0.001c-0.101 0.076-0.219 0.135-0.348 0.17l-0.007 0.002c-0.156 0.043-0.32 0.063-0.484 0.060l-0.486-0.007zM16.614 29.629h0.486c0.106 0.001 0.211-0.012 0.311-0.039 0.086-0.025 0.161-0.063 0.227-0.112l-0.002 0.001c0.113-0.090 0.185-0.228 0.185-0.383 0-0.003-0-0.005-0-0.008v0c0.005-0.072-0.009-0.144-0.040-0.211s-0.079-0.127-0.14-0.177c-0.135-0.089-0.299-0.141-0.477-0.141-0.022 0-0.044 0.001-0.066 0.002l0.003-0h-0.486v1.067zM22.011 30.881h-0.317c-0.002 0-0.003 0-0.005 0-0.031 0-0.059-0.009-0.084-0.024l0.001 0c-0.022-0.015-0.040-0.035-0.052-0.059l-0-0.001-0.273-0.626h-1.371l-0.283 0.626c-0.025 0.050-0.076 0.084-0.135 0.084-0.002 0-0.004-0-0.006-0h-0.317l1.204-2.592h0.418l1.221 2.592zM20.023 29.919h1.132l-0.478-1.055c-0.033-0.068-0.064-0.149-0.087-0.233l-0.003-0.011-0.046 0.136c-0.014 0.041-0.030 0.079-0.044 0.11l-0.474 1.053zM23.745 28.301c0.024 0.011 0.044 0.026 0.060 0.046l0 0 1.757 1.954v-2.012h0.359v2.592h-0.201c-0.002 0-0.003 0-0.005 0-0.028 0-0.054-0.006-0.078-0.016l0.001 0c-0.025-0.012-0.046-0.028-0.064-0.048l-0-0-1.755-1.952c0.001 0.013 0.002 0.029 0.002 0.044s-0.001 0.031-0.002 0.047l0-0.002v1.926h-0.359v-2.592h0.213c0.001-0 0.003-0 0.005-0 0.024 0 0.047 0.004 0.069 0.012l-0.001-0zM28.88 29.85v1.029h-0.402v-1.029l-1.11-1.561h0.359c0.003-0 0.007-0 0.010-0 0.028 0 0.054 0.008 0.076 0.023l-0.001-0c0.022 0.017 0.040 0.036 0.054 0.058l0.695 1.007c0.047 0.066 0.088 0.142 0.12 0.223l0.002 0.007 0.052-0.111c0.022-0.046 0.045-0.084 0.070-0.121l-0.002 0.003 0.684-1.014c0.015-0.021 0.032-0.039 0.051-0.055l0.001-0c0.022-0.016 0.050-0.026 0.080-0.026 0.002 0 0.004 0 0.006 0h0.363l-1.112 1.568zM12.555 23.94c0.175 0.019 0.351 0.034 0.53 0.048 2.709-1.035 5-2.73 6.588-4.872s2.402-4.636 2.339-7.171l-2.985-2.551c0.607 2.699 0.323 5.489-0.82 8.058s-3.1 4.815-5.652 6.488z"></path>
<path fill="#8e8f99" style="fill: var(--color2, #8e8f99)" d="M11.489 23.821l0.080 0.014c2.727-1.667 4.806-3.994 5.969-6.681s1.355-5.61 0.552-8.392l-4.252-3.633c1.72 2.986 2.412 6.328 1.996 9.637s-1.923 6.449-4.345 9.055zM25.909 14.94c-0.722 2.785-2.477 5.297-5.003 7.163-0.688 0.516-1.467 1-2.286 1.416l-0.091 0.042c2.057-0.517 3.947-1.43 5.526-2.669s2.803-2.772 3.578-4.48l-1.724-1.472z"></path>
<path fill="#8e8f99" style="fill: var(--color2, #8e8f99)" d="M25.233 14.53l-2.455-2.098c-0.047 2.392-0.843 4.729-2.305 6.769s-3.537 3.708-6.008 4.831h0.012c0.551 0 1.101-0.028 1.648-0.084 2.31-0.806 4.351-2.087 5.94-3.731s2.678-3.597 3.168-5.688zM11.844 3.597l-2.929-2.506c-2.618 0.865-4.87 2.384-6.461 4.36s-2.446 4.317-2.454 6.715c0.010 2.65 1.054 5.222 2.967 7.308s4.586 3.568 7.595 4.21c2.686-2.796 4.259-6.252 4.49-9.864s-0.893-7.193-3.207-10.223zM32 14.144c-0.011-3.144-1.477-6.157-4.079-8.38s-6.129-3.476-9.809-3.485c-1.7-0.002-3.387 0.267-4.973 0.791l17.933 15.322c0.614-1.354 0.929-2.794 0.928-4.247z"></path>
</symbol>
<symbol id="icon-group-2" viewBox="0 0 32 32">
<path fill="#8e8f99" style="fill: var(--color2, #8e8f99)" d="M14.224 1.806h-0.084c-0.108-0.006-0.243-0.012-0.379-0.014l-0.009-0h-0.28c-0.244 0-0.494 0.006-0.741 0.019-0.008-0-0.018-0.001-0.028-0.001s-0.020 0-0.029 0.001l0.001-0c-2.376 0.139-4.581 0.733-6.575 1.696l0.104-0.045-0.266 0.128v13.625l0.623-0.211c0.404-0.148 0.982-0.323 1.569-0.477l0.162-0.036c1.488-0.398 3.202-0.638 4.967-0.662l0.015-0v1.79c-0.237 0.002-0.465 0.009-0.693 0.021l0.038-0.002h-0.051c-1.399 0.079-2.71 0.289-3.972 0.619l0.139-0.031c-1.59 0.398-3.124 0.996-4.566 1.779v-17.475c1.379-0.82 2.974-1.488 4.663-1.92l0.127-0.028c1.353-0.364 2.908-0.576 4.511-0.582h0.267c0.314 0.008 0.621 0.022 0.909 0.044 0.759 0.053 1.511 0.173 2.249 0.358v1.762c-0.628-0.154-1.372-0.271-2.133-0.326l-0.046-0.003-0.045-0.004c-0.152-0.013-0.304-0.026-0.446-0.026zM17.325 3.607c0.391 0.030 0.796 0.044 1.205 0.044 1.689-0.006 3.324-0.228 4.882-0.639l-0.135 0.030c1.589-0.4 3.123-0.998 4.564-1.781v17.163c-1.38 0.82-2.975 1.488-4.665 1.92l-0.127 0.028c-1.353 0.362-2.908 0.573-4.51 0.581l-0.005 0c-0.033 0-0.072 0-0.111 0-1.177 0-2.319-0.148-3.409-0.425l0.095 0.021v-17.275c0.265 0.061 0.537 0.117 0.814 0.164 0.455 0.077 0.934 0.133 1.401 0.167zM26.060 3.74l-0.623 0.21c-0.573 0.192-1.15 0.365-1.731 0.518-1.551 0.415-3.332 0.656-5.169 0.663h-0.004c-0.406 0-0.78-0.011-1.141-0.034l-0.497-0.033v14.017l0.427 0.038c0.395 0.034 0.803 0.052 1.214 0.052 1.45-0.007 2.853-0.198 4.19-0.553l-0.116 0.026c1.221-0.31 2.281-0.702 3.286-1.189l-0.102 0.045 0.266-0.128v-13.63zM5.377 25.977c-0.166-0.173-0.4-0.281-0.658-0.281-0.012 0-0.024 0-0.037 0.001l0.002-0c-0.004-0-0.009-0-0.013-0-0.139 0-0.272 0.028-0.394 0.078l0.007-0.003c-0.236 0.096-0.419 0.281-0.51 0.512l-0.002 0.006c-0.046 0.112-0.072 0.241-0.072 0.377 0 0.003 0 0.007 0 0.010v-0.001 2.335c-0.006 0.165 0.026 0.328 0.092 0.479 0.055 0.12 0.135 0.226 0.234 0.313 0.089 0.076 0.197 0.133 0.315 0.165l0.006 0.001c0.114 0.032 0.231 0.048 0.349 0.049 0.402-0.004 0.746-0.252 0.89-0.604l0.002-0.006c0.047-0.109 0.075-0.236 0.075-0.37 0-0.001 0-0.001 0-0.002v0-0.261h-0.61v0.208c0 0.005 0 0.010 0 0.016 0 0.069-0.013 0.135-0.037 0.196l0.001-0.004c-0.021 0.052-0.051 0.095-0.089 0.131l-0 0c-0.036 0.029-0.079 0.052-0.125 0.066l-0.003 0.001c-0.038 0.013-0.082 0.021-0.128 0.022h-0c-0.010 0.001-0.022 0.002-0.034 0.002-0.103 0-0.194-0.049-0.252-0.126l-0.001-0.001c-0.051-0.082-0.082-0.181-0.082-0.288 0-0.009 0-0.018 0.001-0.027l-0 0.001v-2.177c-0-0.007-0-0.016-0-0.024 0-0.118 0.028-0.23 0.077-0.329l-0.002 0.004c0.056-0.087 0.152-0.143 0.261-0.143 0.013 0 0.026 0.001 0.039 0.002l-0.002-0c0.003-0 0.006-0 0.009-0 0.107 0 0.202 0.051 0.263 0.13l0.001 0.001c0.068 0.090 0.104 0.2 0.101 0.313v0.202h0.604v-0.238c0-0.002 0-0.005 0-0.008 0-0.281-0.106-0.537-0.28-0.73l0.001 0.001zM9.002 25.95c-0.184-0.16-0.425-0.258-0.69-0.258s-0.506 0.098-0.691 0.259l0.001-0.001c-0.099 0.090-0.179 0.198-0.235 0.321l-0.002 0.006c-0.056 0.128-0.089 0.277-0.089 0.434 0 0.006 0 0.013 0 0.019v-0.001 2.239c-0 0.009-0 0.019-0 0.029 0 0.156 0.033 0.303 0.092 0.437l-0.003-0.007c0.055 0.12 0.136 0.227 0.237 0.313 0.090 0.084 0.197 0.151 0.316 0.195l0.006 0.002c0.108 0.042 0.233 0.067 0.364 0.067s0.256-0.024 0.371-0.069l-0.007 0.002c0.121-0.044 0.233-0.111 0.33-0.197 0.096-0.086 0.173-0.19 0.228-0.307l0.002-0.006c0.056-0.127 0.089-0.275 0.089-0.43 0-0.010-0-0.020-0-0.030l0 0.001v-2.239c0-0.007 0-0.014 0-0.022 0-0.155-0.033-0.303-0.092-0.437l0.003 0.007c-0.057-0.128-0.135-0.236-0.23-0.327l-0-0zM8.718 28.969c0.001 0.010 0.001 0.022 0.001 0.034 0 0.114-0.047 0.216-0.122 0.29l-0 0c-0.077 0.065-0.177 0.105-0.287 0.105s-0.21-0.040-0.288-0.105l0.001 0.001c-0.076-0.072-0.123-0.174-0.123-0.287 0-0.013 0.001-0.026 0.002-0.039l-0 0.002v-2.239c-0.001-0.010-0.001-0.022-0.001-0.034 0-0.114 0.047-0.216 0.122-0.29l0-0c0.077-0.065 0.177-0.105 0.287-0.105s0.21 0.040 0.288 0.105l-0.001-0.001c0.076 0.072 0.123 0.174 0.123 0.287 0 0.013-0.001 0.026-0.002 0.039l0-0.002v2.239zM13.764 29.969v-4.239h-0.587l-0.771 2.244h-0.011l-0.777-2.244h-0.581v4.239h0.606v-2.579h0.011l0.593 1.823h0.302l0.598-1.823h0.011v2.579h0.606zM17.205 26.027c-0.092-0.103-0.207-0.182-0.337-0.23l-0.006-0.002c-0.125-0.042-0.27-0.066-0.419-0.066-0.007 0-0.014 0-0.021 0h-0.899v4.239h0.604v-1.656h0.311c0.189 0.009 0.376-0.031 0.545-0.116 0.139-0.078 0.251-0.188 0.33-0.32l0.002-0.004c0.067-0.106 0.115-0.23 0.138-0.363l0.001-0.006c0.024-0.16 0.035-0.321 0.033-0.482 0.001-0.021 0.001-0.046 0.001-0.070 0-0.19-0.022-0.375-0.063-0.552l0.003 0.016c-0.043-0.153-0.12-0.284-0.223-0.39l0 0zM16.894 27.319c-0.003 0.081-0.024 0.157-0.057 0.224l0.001-0.003c-0.035 0.065-0.089 0.116-0.154 0.148l-0.002 0.001c-0.074 0.034-0.161 0.054-0.253 0.054-0.011 0-0.023-0-0.034-0.001l0.002 0h-0.276v-1.441h0.311c0.009-0 0.019-0.001 0.029-0.001 0.088 0 0.172 0.020 0.247 0.055l-0.003-0.002c0.062 0.037 0.111 0.090 0.141 0.155l0.001 0.002c0.032 0.069 0.051 0.15 0.053 0.235l0 0.001v0.282c0 0.099 0.006 0.2 0 0.291h-0.006zM20.066 25.73h-0.495l-0.934 4.239h0.604l0.177-0.911h0.823l0.177 0.911h0.604l-0.957-4.239zM19.509 28.481l0.297-1.537h0.011l0.296 1.537h-0.604zM23.969 28.284h-0.011l-0.912-2.554h-0.581v4.239h0.604v-2.549h0.012l0.923 2.549h0.568v-4.239h-0.604v2.554zM27.66 25.73l-0.486 1.685h-0.012l-0.486-1.685h-0.64l0.83 2.447v1.792h0.604v-1.792l0.83-2.447h-0.64zM3.692 31.166h0.291v0.817h0.198v-0.817h0.29v-0.167h-0.778v0.167zM6.14 30.998l-0.381 0.984h0.21l0.081-0.224h0.392l0.084 0.224h0.215l-0.391-0.984h-0.21zM6.108 31.593l0.134-0.365 0.134 0.365h-0.268zM8.559 31.62h0.227v0.127c-0.063 0.051-0.144 0.082-0.233 0.083h-0c-0.005 0-0.011 0.001-0.017 0.001-0.078 0-0.147-0.036-0.192-0.093l-0-0.001c-0.046-0.065-0.074-0.147-0.074-0.235 0-0.008 0-0.016 0.001-0.023l-0 0.001c0-0.219 0.095-0.329 0.283-0.329 0.007-0.001 0.014-0.001 0.022-0.001 0.097 0 0.178 0.067 0.2 0.157l0 0.001 0.195-0.038c-0.042-0.192-0.181-0.289-0.417-0.289-0.004-0-0.008-0-0.013-0-0.128 0-0.244 0.048-0.332 0.128l0-0c-0.088 0.089-0.142 0.212-0.142 0.347 0 0.011 0 0.023 0.001 0.034l-0-0.002c-0 0.007-0.001 0.016-0.001 0.025 0 0.132 0.048 0.252 0.127 0.345l-0.001-0.001c0.087 0.090 0.208 0.145 0.343 0.145 0.011 0 0.022-0 0.033-0.001l-0.001 0c0.005 0 0.010 0 0.016 0 0.155 0 0.296-0.060 0.401-0.158l-0 0v-0.388h-0.427v0.166zM11.029 30.998h-0.199v0.984h0.69v-0.167h-0.49v-0.817zM13.118 30.998h-0.199v0.984h0.199v-0.984zM15.161 31.656l-0.403-0.657h-0.193v0.984h0.185v-0.643l0.395 0.643h0.198v-0.984h-0.182v0.657zM17.007 31.549h0.49v-0.167h-0.49v-0.216h0.528v-0.167h-0.727v0.984h0.747v-0.167h-0.548v-0.266zM21.484 31.387h-0.388v-0.388h-0.198v0.984h0.198v-0.43h0.388v0.43h0.198v-0.984h-0.198v0.388zM23.342 31.549h0.492v-0.167h-0.492v-0.216h0.529v-0.167h-0.727v0.984h0.746v-0.167h-0.548v-0.266zM25.86 31.549c0.171-0.027 0.258-0.117 0.258-0.274 0.001-0.008 0.002-0.018 0.002-0.028 0-0.078-0.038-0.148-0.097-0.191l-0.001-0c-0.073-0.037-0.158-0.059-0.249-0.059-0.014 0-0.027 0-0.041 0.001l0.002-0h-0.417v0.984h0.198v-0.412h0.039c0.005-0 0.011-0.001 0.017-0.001 0.038 0 0.075 0.008 0.108 0.023l-0.002-0.001c0.029 0.018 0.052 0.042 0.069 0.071l0.001 0.001 0.215 0.313h0.237l-0.12-0.192c-0.054-0.096-0.128-0.175-0.216-0.234l-0.002-0.002zM25.661 31.413h-0.146v-0.247h0.156c0.013-0.001 0.027-0.002 0.042-0.002 0.057 0 0.112 0.009 0.163 0.026l-0.004-0.001c0.014 0.013 0.026 0.029 0.033 0.046 0.006 0.015 0.010 0.032 0.010 0.050 0 0.022-0.005 0.043-0.015 0.062l0-0.001c-0.009 0.017-0.022 0.032-0.037 0.043l-0 0c-0.048 0.015-0.104 0.024-0.162 0.024-0.014 0-0.028-0-0.041-0.002l0.002 0zM27.76 31.549h0.49v-0.167h-0.49v-0.216h0.529v-0.167h-0.729v0.984h0.747v-0.167h-0.548v-0.266z"></path>
</symbol>
<symbol id="icon-group-1" viewBox="0 0 32 32">
<path fill="#8e8f99" style="fill: var(--color2, #8e8f99)" d="M6.128 0l4.771 4.546-8.856-0.005v22.054h23.149v-8.432l4.766 4.541v-22.703h-23.83zM24.982 17.629l-13.528-12.889h13.528v12.889zM20.782 23.369h-15.076v-14.833h1.066v13.828h14.010v1.004zM8.712 30.68l-0.562-1.155h-0.464l0.814 1.529v0.891h0.421v-0.891l0.815-1.529h-0.462l-0.562 1.155zM10.783 29.525h0.1l0.914 2.42h-0.439l-0.196-0.567h-0.937l-0.195 0.567h-0.437l0.911-2.42h0.279zM10.34 31.047h0.709l-0.355-1.027-0.354 1.027zM13.264 30.646l-0.053-0.068c-0.054-0.069-0.102-0.147-0.142-0.23l-0.003-0.008c-0.033-0.075-0.053-0.163-0.053-0.256 0-0.113 0.029-0.22 0.080-0.313l-0.002 0.003c0.052-0.090 0.127-0.162 0.218-0.208l0.003-0.001c0.093-0.047 0.202-0.075 0.318-0.075 0.006 0 0.011 0 0.017 0h-0.001c0.123 0 0.229 0.025 0.317 0.075 0.090 0.049 0.158 0.114 0.206 0.194 0.049 0.081 0.073 0.17 0.073 0.266 0 0.076-0.014 0.146-0.042 0.209s-0.066 0.121-0.115 0.173c-0.051 0.054-0.107 0.102-0.166 0.146l-0.004 0.002-0.168 0.122 0.479 0.566c0.066-0.127 0.105-0.278 0.105-0.438 0-0.005-0-0.010-0-0.015v0.001h0.346c0 0.117-0.012 0.229-0.035 0.334-0.032 0.152-0.094 0.287-0.179 0.403l0.002-0.003 0.355 0.418h-0.464l-0.141-0.165c-0.071 0.055-0.153 0.101-0.241 0.134l-0.007 0.002c-0.11 0.040-0.236 0.063-0.368 0.063-0.003 0-0.005 0-0.008-0h0c-0.161 0-0.3-0.029-0.417-0.088s-0.208-0.14-0.273-0.243c-0.060-0.098-0.095-0.216-0.095-0.343 0-0.004 0-0.008 0-0.012v0.001c0-0.099 0.021-0.185 0.061-0.259 0.046-0.081 0.102-0.15 0.167-0.208l0.001-0.001c0.066-0.059 0.14-0.119 0.224-0.178zM13.463 30.889l-0.050 0.036c-0.051 0.039-0.094 0.085-0.13 0.136l-0.001 0.002c-0.043 0.062-0.069 0.14-0.069 0.223 0 0.068 0.017 0.132 0.047 0.188l-0.001-0.002c0.032 0.058 0.078 0.105 0.133 0.137l0.002 0.001c0.060 0.033 0.132 0.050 0.218 0.050 0.001 0 0.001 0 0.002 0 0.148 0 0.283-0.052 0.39-0.138l-0.001 0.001-0.539-0.633zM13.559 30.447l0.148-0.1c0.059-0.037 0.109-0.082 0.149-0.135l0.001-0.001c0.028-0.045 0.045-0.1 0.045-0.158 0-0.004-0-0.008-0-0.012l0 0.001c-0.004-0.13-0.11-0.233-0.241-0.233-0.005 0-0.010 0-0.015 0l0.001-0c-0.002-0-0.005-0-0.008-0-0.099 0-0.184 0.058-0.223 0.142l-0.001 0.002c-0.018 0.040-0.028 0.086-0.028 0.135 0 0.002 0 0.004 0 0.006v-0c0 0.050 0.013 0.101 0.038 0.155 0.039 0.076 0.083 0.142 0.134 0.201l-0.001-0.001zM17.793 31.157h-0.416c-0.010 0.099-0.037 0.19-0.078 0.273l0.002-0.005c-0.038 0.072-0.096 0.128-0.166 0.164l-0.002 0.001c-0.076 0.036-0.166 0.057-0.26 0.057-0.010 0-0.020-0-0.029-0.001l0.001 0c-0.098 0-0.181-0.019-0.251-0.058s-0.127-0.094-0.173-0.165c-0.045-0.073-0.079-0.158-0.099-0.249l-0.001-0.005c-0.020-0.096-0.032-0.207-0.032-0.321 0-0.004 0-0.008 0-0.012v0.001-0.204c0-0.129 0.012-0.243 0.035-0.342 0.024-0.101 0.060-0.186 0.108-0.254s0.107-0.121 0.178-0.156c0.070-0.034 0.151-0.053 0.237-0.053 0.004 0 0.008 0 0.012 0h-0.001c0.116 0 0.211 0.020 0.283 0.060 0.071 0.038 0.127 0.097 0.162 0.168l0.001 0.002c0.039 0.078 0.065 0.169 0.073 0.265l0 0.003h0.416c-0.015-0.16-0.063-0.306-0.139-0.435l0.003 0.005c-0.073-0.125-0.176-0.223-0.309-0.294s-0.296-0.106-0.489-0.106c-0.152 0-0.289 0.027-0.411 0.080-0.123 0.055-0.227 0.133-0.31 0.23l-0.001 0.001c-0.086 0.1-0.153 0.22-0.2 0.361-0.043 0.136-0.068 0.292-0.068 0.454 0 0.006 0 0.013 0 0.019v-0.001 0.201c0 0.174 0.022 0.331 0.067 0.472s0.111 0.261 0.196 0.361c0.083 0.096 0.186 0.174 0.302 0.227l0.006 0.002c0.12 0.053 0.254 0.080 0.404 0.080 0.195 0 0.361-0.035 0.497-0.106s0.242-0.168 0.317-0.291c0.074-0.121 0.122-0.266 0.133-0.421l0-0.003zM20.102 30.801v-0.133c0-0.183-0.024-0.346-0.073-0.49-0.046-0.143-0.116-0.267-0.205-0.373l0.001 0.002c-0.085-0.1-0.191-0.179-0.311-0.232l-0.006-0.002c-0.117-0.051-0.253-0.081-0.395-0.081-0.005 0-0.009 0-0.014 0h0.001c-0.148 0-0.284 0.027-0.407 0.081-0.126 0.055-0.232 0.135-0.316 0.233l-0.001 0.001c-0.089 0.104-0.159 0.228-0.204 0.363l-0.002 0.008c-0.046 0.139-0.073 0.299-0.073 0.466 0 0.008 0 0.017 0 0.025l-0-0.001v0.133c0 0.183 0.024 0.347 0.073 0.492 0.050 0.145 0.12 0.269 0.209 0.371s0.196 0.18 0.317 0.234c0.123 0.053 0.259 0.080 0.407 0.080 0.15 0 0.286-0.027 0.409-0.080 0.125-0.056 0.231-0.135 0.315-0.233l0.001-0.001c0.089-0.102 0.157-0.226 0.204-0.371s0.072-0.309 0.072-0.492zM19.684 30.665v0.136c0 0.135-0.013 0.255-0.040 0.359-0.023 0.1-0.062 0.189-0.115 0.267l0.002-0.003c-0.090 0.13-0.239 0.215-0.407 0.215-0.009 0-0.017-0-0.025-0.001l0.001 0c-0.003 0-0.006 0-0.009 0-0.086 0-0.168-0.020-0.24-0.055l0.003 0.001c-0.075-0.039-0.137-0.094-0.185-0.159l-0.001-0.002c-0.051-0.072-0.090-0.16-0.116-0.264s-0.040-0.224-0.040-0.359v-0.136c0-0.135 0.013-0.254 0.040-0.357 0.024-0.099 0.064-0.186 0.117-0.264l-0.002 0.003c0.091-0.131 0.241-0.215 0.411-0.215 0.007 0 0.013 0 0.020 0l-0.001-0c0.092 0 0.175 0.018 0.248 0.055 0.076 0.037 0.138 0.092 0.183 0.158l0.001 0.002c0.051 0.070 0.089 0.157 0.115 0.261 0.027 0.103 0.040 0.222 0.040 0.357z"></path>
</symbol>
<symbol id="icon-facebook-1" viewBox="0 0 32 32">
<path fill="#f4f4fd" style="fill: var(--color1, #f4f4fd)" d="M21.329 5.313h2.921v-5.088c-0.504-0.069-2.237-0.225-4.256-0.225-4.212 0-7.097 2.649-7.097 7.519v4.481h-4.648v5.688h4.648v14.312h5.699v-14.311h4.46l0.708-5.688h-5.169v-3.919c0.001-1.644 0.444-2.769 2.735-2.769z"></path>
</symbol>
<symbol id="icon-diagram-1" viewBox="0 0 32 32">
<path fill="#4d5ae5" style="fill: var(--color3, #4d5ae5)" d="M14.926 14.965h1.066v4.798h-1.066v-4.797zM19.19 17.097h1.066v2.665h-1.066v-2.665zM10.661 18.696h1.066v1.066h-1.066v-1.066zM7.463 18.163h1.066v1.599h-1.066v-1.599z"></path>
<path fill="#2e2f42" style="fill: var(--color4, #2e2f42)" d="M1.599 28.291h25.587c0.883-0.001 1.598-0.716 1.599-1.599v-2.132c-0.001-0.883-0.716-1.598-1.599-1.599h-0.533v-13.293l3.028-2.868c0.208 0.105 0.452 0.166 0.712 0.166 0.888 0 1.608-0.72 1.608-1.608s-0.72-1.608-1.608-1.608c-0.888 0-1.608 0.72-1.608 1.608 0 0.246 0.055 0.48 0.155 0.689l-0.004-0.010-2.281 2.163v-1.23c-0.001-0.883-0.716-1.598-1.599-1.599h-21.322c-0.883 0.001-1.598 0.716-1.599 1.599v15.992h-0.533c-0.883 0.001-1.598 0.716-1.599 1.599v2.132c0.001 0.883 0.716 1.598 1.599 1.599h0zM30.384 4.837c0.295 0 0.534 0.239 0.534 0.534s-0.239 0.534-0.534 0.534v0c-0.295 0-0.534-0.239-0.534-0.534s0.239-0.534 0.534-0.534v0zM3.198 6.969c0-0.294 0.239-0.533 0.533-0.533h21.322c0.294 0 0.533 0.239 0.533 0.533v2.239l-1.066 1.013v-2.186c0-0.294-0.239-0.533-0.533-0.533v0h-19.19c-0.294 0-0.533 0.239-0.533 0.533v0 13.326c0 0.294 0.239 0.533 0.533 0.533h19.19c0.294 0 0.533-0.239 0.533-0.533v0-9.674l1.066-1.010v12.284h-22.388v-15.992zM7.996 13.899c-0 0-0.001 0-0.002 0-0.883 0-1.598 0.715-1.598 1.598s0.715 1.598 1.598 1.598c0.431 0 0.822-0.17 1.109-0.447l-0.001 0 1.853 0.93c0.069 0.035 0.151 0.056 0.238 0.056 0.158 0 0.3-0.069 0.398-0.179l0-0.001 3.939-4.431 3.872 2.901c0.088 0.067 0.199 0.107 0.32 0.107 0.142 0 0.271-0.055 0.366-0.146l-0 0 3.365-3.188v8.131h-18.124v-12.26h18.124v2.66l-3.771 3.572-3.904-2.927c-0.088-0.067-0.199-0.107-0.32-0.107-0.158 0-0.3 0.069-0.398 0.178l-0 0.001-3.993 4.493-1.493-0.746c0.011-0.064 0.018-0.129 0.020-0.193-0.001-0.883-0.716-1.598-1.599-1.599h-0zM8.529 15.498c0 0.295-0.239 0.533-0.534 0.533s-0.534-0.239-0.534-0.534v0c0-0.295 0.239-0.534 0.534-0.534s0.534 0.239 0.534 0.534v0zM11.727 24.027h5.331v0.533c0 0.294-0.239 0.533-0.533 0.533v0h-4.264c-0.294 0-0.533-0.239-0.533-0.533v0-0.533zM1.066 24.56c0-0.294 0.239-0.533 0.533-0.533h9.062v0.533c0.001 0.883 0.716 1.598 1.599 1.599h4.264c0.883-0.001 1.598-0.716 1.599-1.599v-0.533h9.062c0.294 0 0.533 0.239 0.533 0.533v2.132c0 0.294-0.239 0.533-0.533 0.533v0h-25.587c-0.294 0-0.533-0.239-0.533-0.533v0-2.132z"></path>
</symbol>
<symbol id="icon-clock-1" viewBox="0 0 32 32">
<path fill="#2e2f42" style="fill: var(--color4, #2e2f42)" d="M31.297 15.301c-0.002-8.452-6.855-15.303-15.308-15.301s-15.303 6.855-15.301 15.308c0.001 6.788 4.422 12.543 10.541 14.545l0.108 0.031c0.057 0.018 0.123 0.028 0.191 0.028 0.125 0 0.242-0.035 0.341-0.095l-0.003 0.002c0.134-0.080 0.234-0.204 0.282-0.352l0.001-0.005 3.865-12.25c1.051-0.006 1.901-0.86 1.901-1.912 0-1.056-0.856-1.912-1.912-1.912-0.301 0-0.587 0.070-0.84 0.194l0.011-0.005-5.106-5.107c-0.115-0.115-0.275-0.187-0.451-0.187-0.352 0-0.638 0.286-0.638 0.638 0 0.176 0.071 0.336 0.187 0.451v0l5.103 5.109c-0.121 0.241-0.191 0.525-0.191 0.826 0 0.601 0.283 1.137 0.723 1.48l0.004 0.003-3.683 11.673c-7.278-2.681-11.004-10.754-8.323-18.032s10.754-11.004 18.032-8.323c7.278 2.681 11.004 10.754 8.323 18.032-1.345 3.581-4.003 6.406-7.374 7.937l-0.088 0.036-0.398-1.874c-0.062-0.291-0.318-0.507-0.624-0.507-0.164 0-0.313 0.062-0.426 0.163l0.001-0-3.837 3.426c-0.132 0.117-0.214 0.287-0.214 0.477 0 0.283 0.185 0.523 0.441 0.606l0.005 0.001 4.899 1.564c0.058 0.019 0.125 0.030 0.195 0.030 0.352 0 0.638-0.286 0.638-0.638 0-0.047-0.005-0.093-0.015-0.137l0.001 0.004-0.391-1.839c5.528-2.374 9.329-7.772 9.329-14.057 0-0.011 0-0.023-0-0.034v0.002zM15.992 14.664c0.353 0 0.639 0.286 0.639 0.639s-0.286 0.639-0.639 0.639v0c-0.353 0-0.639-0.286-0.639-0.639s0.286-0.639 0.639-0.639v0zM18.093 29.528l2.184-1.948 0.603 2.84-2.787-0.892z"></path>
<path fill="#4d5ae5" style="fill: var(--color3, #4d5ae5)" d="M15.354 3.185v1.275c0 0.352 0.286 0.638 0.638 0.638s0.638-0.286 0.638-0.638v-1.275c0-0.352-0.286-0.638-0.638-0.638s-0.638 0.286-0.638 0.638v0zM3.876 14.664c-0.352 0-0.638 0.286-0.638 0.638s0.286 0.638 0.638 0.638h1.275c0.352 0 0.638-0.286 0.638-0.638s-0.286-0.638-0.638-0.638h-1.275zM28.108 15.939c0.352 0 0.638-0.286 0.638-0.638s-0.286-0.638-0.638-0.638h-1.275c-0.352 0-0.638 0.286-0.638 0.638s0.286 0.638 0.638 0.638h1.275z"></path>
</symbol>
<symbol id="icon-astronaut-1" viewBox="0 0 32 32">
<path fill="#4d5ae5" style="fill: var(--color3, #4d5ae5)" d="M31.974 4.524c-0.064-0.191-0.227-0.332-0.427-0.363l-0.003-0-1.91-0.278-0.855-1.731c-0.179-0.365-0.777-0.365-0.956 0l-0.855 1.731-1.91 0.278c-0.259 0.040-0.455 0.262-0.455 0.529 0 0.149 0.061 0.284 0.159 0.381l0 0 1.383 1.348-0.326 1.903c-0.034 0.2 0.048 0.402 0.212 0.522 0.087 0.064 0.195 0.102 0.313 0.102 0.091 0 0.177-0.023 0.252-0.064l-0.003 0.001 1.709-0.899 1.709 0.899c0.071 0.038 0.156 0.060 0.246 0.060 0.296 0 0.536-0.24 0.536-0.536 0-0.031-0.003-0.061-0.008-0.090l0 0.003-0.326-1.903 1.383-1.348c0.099-0.097 0.161-0.233 0.161-0.383 0-0.059-0.009-0.115-0.027-0.168l0.001 0.004zM29.511 5.851c-0.099 0.097-0.161 0.232-0.161 0.382 0 0.032 0.003 0.063 0.008 0.093l-0-0.003 0.191 1.114-1-0.526c-0.072-0.039-0.158-0.062-0.249-0.062s-0.177 0.023-0.252 0.063l0.003-0.001-1.001 0.526 0.191-1.114c0.005-0.027 0.008-0.058 0.008-0.090 0-0.15-0.061-0.285-0.161-0.382l-0-0-0.81-0.789 1.119-0.163c0.177-0.026 0.324-0.137 0.401-0.289l0.001-0.003 0.5-1.013 0.5 1.013c0.078 0.155 0.225 0.265 0.399 0.292l0.003 0 1.119 0.163-0.809 0.789zM26.134 20.522h-1.067v1.067h1.067v-1.067zM26.134 22.656h-1.067v1.067h1.067v-1.067zM27.2 21.589h-1.067v1.067h1.067v-1.067zM25.067 21.589h-1.067v1.067h1.067v-1.067zM22.4 26.389h-1.067v1.067h1.067v-1.067zM22.4 28.522h-1.067v1.067h1.067v-1.067zM23.467 27.456h-1.067v1.067h1.067v-1.067zM21.333 27.456h-1.067v1.067h1.067v-1.067zM16 24.256h-1.067v1.067h1.067v-1.067zM16 26.389h-1.067v1.067h1.067v-1.067zM17.067 25.322h-1.067v1.067h1.067v-1.067zM14.933 25.322h-1.067v1.067h1.067v-1.067zM5.867 6.122h-1.067v1.067h1.067v-1.067zM5.867 8.255h-1.067v1.067h1.067v-1.067z"></path>
<path fill="#4d5ae5" style="fill: var(--color3, #4d5ae5)" d="M6.933 7.189h-1.067v1.067h1.067v-1.067zM4.8 7.189h-1.067v1.067h1.067v-1.067z"></path>
<path fill="#2e2f42" style="fill: var(--color4, #2e2f42)" d="M24.715 14.159c-0.28-0.376-0.698-0.636-1.179-0.704l-0.009-0.001c-0.076-0.012-0.164-0.018-0.254-0.018-0.411 0-0.789 0.139-1.090 0.373l0.004-0.003-1.252 0.96-1.898 1.417-1.358-0.541c2.421-1.086 4.114-3.508 4.114-6.32 0-3.823-3.123-6.933-6.961-6.933s-6.961 3.11-6.961 6.933c0 0 0 0.001 0 0.001 0 1.398 0.418 2.698 1.136 3.782l-0.016-0.025-2.769-0.024c-0.009 0-0.015 0.004-0.023 0.005-0.056 0.002-0.109 0.014-0.159 0.032l0.004-0.001-0.038 0.013c-0.006 0.003-0.013 0.003-0.019 0.006l-3.234 1.597-1.893 0.911c-0.024 0.011-0.045 0.023-0.064 0.036l0.001-0.001c-0.482 0.323-0.795 0.866-0.795 1.482 0 0.297 0.073 0.577 0.201 0.823l-0.005-0.010c0.22 0.429 0.595 0.745 1.056 0.889 0.161 0.053 0.346 0.083 0.538 0.083 0.308 0 0.597-0.078 0.85-0.216l-0.009 0.005 1.388-0.738 2.264-1.169 1.357-0.008-6.783 6.75c-0.316 0.315-0.49 0.732-0.49 1.178s0.174 0.863 0.49 1.179c0.325 0.323 0.752 0.485 1.179 0.485s0.854-0.162 1.18-0.485l1.314-1.309 1.741-1.3 0.901 0.897-3.103 3.088c-0.316 0.315-0.49 0.732-0.49 1.178s0.174 0.863 0.49 1.179c0.325 0.323 0.753 0.485 1.18 0.485s0.855-0.162 1.18-0.485l3.483-3.469 1.010-1-0.004-0.004c0.006-0.006 0.015-0.009 0.022-0.015l5.166-5.658 3.471 0.494c0.020 0.003 0.044 0.005 0.068 0.005 0.070 0 0.136-0.014 0.197-0.039l-0.003 0.001c0.018-0.006 0.033-0.015 0.050-0.023 0.019-0.010 0.039-0.015 0.058-0.027l3.213-2.133c0.012-0.008 0.018-0.021 0.029-0.029 0.013-0.010 0.029-0.014 0.041-0.026l1.271-1.191c0.662-0.62 0.753-1.635 0.212-2.362zM2.13 17.77c-0.098 0.054-0.215 0.086-0.34 0.086-0.078 0-0.153-0.012-0.223-0.036l0.005 0.001c-0.294-0.094-0.503-0.365-0.503-0.684 0-0.235 0.113-0.444 0.288-0.574l0.002-0.001 1.314-0.632 0.449 1.313-0.992 0.527zM5.628 15.942l-1.548 0.8-0.439-1.283 2.027-1.001-0.040 1.484zM20.727 9.322c-0.001 0.932-0.222 1.813-0.614 2.592l0.015-0.033-4.181-1.899c-0.044-0.575-0.342-1.073-0.782-1.384l-0.006-0.004 1.464-4.86c2.378 0.756 4.105 2.974 4.105 5.588zM8.938 9.322c0-3.235 2.644-5.867 5.894-5.867 0.253 0 0.5 0.021 0.745 0.052l-1.432 4.754c-0.019-0.001-0.037-0.006-0.057-0.006-1.033 0-1.873 0.837-1.873 1.867s0.84 1.867 1.873 1.867c0.694 0 1.294-0.383 1.618-0.945l3.862 1.755c-1.085 1.456-2.802 2.389-4.737 2.39h-0c-3.25 0-5.894-2.632-5.894-5.867zM14.894 10.122c0 0.441-0.362 0.8-0.806 0.8s-0.806-0.359-0.806-0.8c0-0.441 0.362-0.8 0.806-0.8s0.806 0.359 0.806 0.8zM2.465 25.146c-0.11 0.109-0.261 0.176-0.428 0.176s-0.317-0.067-0.427-0.175l0 0c-0.109-0.107-0.177-0.257-0.177-0.422s0.068-0.315 0.177-0.422l0-0 0.962-0.958 0.851 0.848-0.959 0.955zM5.679 28.88c-0.11 0.109-0.261 0.176-0.428 0.176s-0.317-0.067-0.427-0.175l0 0c-0.109-0.107-0.177-0.257-0.177-0.422s0.068-0.315 0.177-0.422l0-0 0.963-0.959 0.852 0.848-0.96 0.955zM9.16 25.411l-0.002 0.001-1.765 1.76-0.852-0.848 1.765-1.756c0.040-0.040 0.065-0.088 0.090-0.135 0.007-0.014 0.020-0.026 0.026-0.040 0.017-0.041 0.019-0.085 0.026-0.129 0.003-0.025 0.014-0.047 0.014-0.073 0-0.036-0.013-0.070-0.020-0.106-0.006-0.032-0.006-0.065-0.019-0.095-0.025-0.053-0.055-0.098-0.091-0.138l0 0c-0.010-0.012-0.014-0.027-0.025-0.038h-0.001l-0.001-0.002-1.607-1.6c-0.017-0.017-0.039-0.024-0.058-0.038-0.025-0.021-0.054-0.040-0.084-0.057l-0.003-0.001c-0.026-0.013-0.057-0.024-0.089-0.032l-0.004-0.001c-0.030-0.009-0.065-0.017-0.101-0.020l-0.002-0c-0.006-0-0.014-0-0.021-0-0.026 0-0.052 0.002-0.076 0.006l0.003-0c-0.038 0.004-0.074 0.011-0.108 0.021l0.004-0.001c-0.036 0.013-0.067 0.028-0.096 0.046l0.002-0.001c-0.020 0.011-0.042 0.015-0.061 0.029l-1.773 1.324-0.901-0.897 2.399-2.386 4.361 4.289-0.928 0.919zM15.979 18.394c-0.015-0.002-0.030 0.004-0.045 0.003-0.006-0-0.013-0-0.020-0-0.103 0-0.199 0.028-0.282 0.077l0.003-0.001c-0.031 0.018-0.059 0.039-0.083 0.061l0-0c-0.013 0.011-0.028 0.017-0.040 0.029l-4.698 5.146-4.328-4.257 2.833-2.818c0.096-0.097 0.156-0.23 0.156-0.377 0-0.295-0.239-0.534-0.534-0.534-0 0-0.001 0-0.001 0h0v-0.001l-2.219 0.013 0.028-1.607 3.104 0.027c1.263 1.297 3.027 2.101 4.978 2.101 0.001 0 0.002 0 0.004 0h-0c0.437 0 0.864-0.045 1.279-0.123 0.040 0.032 0.079 0.065 0.13 0.085l2.41 0.96 0.152 0.758 0.178 0.885-3.003-0.427zM20.020 18.572l-0.313-1.558 1.446-1.080 0.947 1.257-2.080 1.381zM23.774 15.741l-0.838 0.785-0.931-1.236 0.831-0.637c0.122-0.093 0.277-0.15 0.445-0.15 0.035 0 0.069 0.002 0.102 0.007l-0.004-0c0.198 0.028 0.367 0.132 0.479 0.282l0.001 0.002c0.088 0.117 0.141 0.265 0.141 0.426 0 0.205-0.087 0.391-0.226 0.521l-0 0z"></path>
<path fill="#2e2f42" style="fill: var(--color4, #2e2f42)" d="M13.602 18.544l-2.143-2.133c-0.097-0.096-0.23-0.155-0.377-0.155s-0.28 0.059-0.377 0.155l0-0-2.142 2.133c-0.096 0.097-0.156 0.231-0.156 0.378s0.059 0.281 0.156 0.378l-0-0 2.142 2.133c0.097 0.096 0.23 0.154 0.377 0.154s0.28-0.059 0.377-0.155l-0 0 2.143-2.133c0.097-0.097 0.156-0.23 0.156-0.378s-0.060-0.281-0.156-0.378v0zM11.083 20.303l-1.387-1.381 1.387-1.381 1.387 1.381-1.387 1.381zM17.164 5.071l-0.258 1.036c0.071 0.018 1.738 0.452 1.738 2.149h1.067c0-2.017-1.666-2.965-2.547-3.185zM19.711 9.322h-1.067v1.067h1.067v-1.067z"></path>
</symbol>
<symbol id="icon-antenna-1" viewBox="0 0 32 32">
<path fill="#2e2f42" style="fill: var(--color4, #2e2f42)" d="M30.773 22.098l-8.443-8.505 0.937-4.615c0.242 0.094 0.499 0.144 0.758 0.146h0.006c0.008 0 0.017 0 0.026 0 1.192 0 2.159-0.967 2.159-2.159s-0.967-2.159-2.159-2.159c-1.192 0-2.159 0.967-2.159 2.159 0 0.26 0.046 0.508 0.13 0.739l-0.005-0.015-4.96 0.605-8.091-8.133c-0.096-0.098-0.229-0.159-0.377-0.16h-0c-0.146 0.001-0.277 0.060-0.373 0.155l0-0-1.513 1.504c-0.096 0.097-0.156 0.23-0.156 0.377s0.060 0.28 0.156 0.377v0l0.814 0.826c-1.143 2.062-1.816 4.522-1.816 7.139 0 4.105 1.656 7.824 4.336 10.525l-0.001-0.001c0.041 0.040 0.090 0.073 0.143 0.097l0.003 0.001c-0.034 0.18-0.051 0.364-0.052 0.547v6.187h-6.4c-1.472 0.002-2.665 1.195-2.667 2.667v1.067c0 0.295 0.239 0.533 0.533 0.533h24.533c0.294 0 0.533-0.239 0.533-0.533v0-1.067c-0.002-1.472-1.195-2.665-2.667-2.667h-6.4v-2.742c0.915 0.2 1.968 0.317 3.047 0.32h0.002c2.58-0.003 5.005-0.663 7.117-1.822l-0.077 0.039 0.818 0.823c0.096 0.098 0.229 0.159 0.377 0.16h0c0.146-0.001 0.277-0.060 0.373-0.155l-0 0 1.513-1.504c0.096-0.097 0.156-0.23 0.156-0.377s-0.060-0.28-0.156-0.377v0zM23.28 6.233c0.193-0.193 0.46-0.312 0.754-0.312 0.589 0 1.067 0.478 1.067 1.067s-0.478 1.067-1.067 1.067c-0 0-0.001 0-0.001 0h-0.003c-0.587-0.003-1.061-0.48-1.061-1.067 0-0.295 0.12-0.563 0.314-0.756l0-0h-0.002zM22.024 9.738l-0.598 2.946-1.175-1.182 1.774-1.763zM21.419 8.836l-1.92 1.909-1.485-1.493 3.405-0.415zM24.004 28.8c0.884 0 1.6 0.716 1.6 1.6v0 0.533h-23.467v-0.533c0-0.884 0.716-1.6 1.6-1.6v0h20.267zM16.537 26.667v1.067h-5.333v-1.067h5.333zM11.204 25.6v-4.053c0-1.294 1.196-2.347 2.667-2.347s2.667 1.053 2.667 2.347v4.053h-5.333zM17.604 23.904v-2.357c0-1.882-1.675-3.413-3.733-3.413-0.017-0-0.038-0-0.058-0-1.353 0-2.54 0.707-3.213 1.771l-0.009 0.016c-2.36-2.482-3.811-5.846-3.811-9.55 0-2.314 0.567-4.496 1.569-6.414l-0.036 0.077 18.602 18.708c-1.823 0.947-3.979 1.502-6.266 1.502-1.079 0-2.129-0.124-3.136-0.358l0.093 0.018zM28.893 23.22l-21.057-21.181 0.755-0.752 7.935 7.98c0.004 0 0.006 0.007 0.010 0.010l13.115 13.191-0.757 0.752z"></path>
<path fill="#4d5ae5" style="fill: var(--color3, #4d5ae5)" d="M13.876 20.267h-0.005c-0.001 0-0.001 0-0.002 0-0.884 0-1.6 0.716-1.6 1.6s0.715 1.599 1.598 1.6h0.005c0.001 0 0.001 0 0.002 0 0.884 0 1.6-0.716 1.6-1.6s-0.715-1.599-1.598-1.6h-0zM14.249 22.245c-0.094 0.084-0.218 0.135-0.355 0.135-0.295 0-0.534-0.239-0.534-0.534 0-0.137 0.052-0.263 0.137-0.357l-0 0c0.096-0.095 0.227-0.154 0.373-0.155h0c0.293 0.002 0.53 0.241 0.53 0.534 0 0.147-0.060 0.28-0.156 0.377v0h0.005z"></path>
</symbol>
</defs>
</svg>
